G04 #@! TF.FileFunction,Paste,Bot*
%FSLAX46Y46*%
G04 Gerber Fmt 4.6, Leading zero omitted, Abs format (unit mm)*
G04 Created by KiCad (PCBNEW 4.0.7) date 2018. July 19., Thursday 23:16:55*
%MOMM*%
%LPD*%
G01*
G04 APERTURE LIST*
%ADD10C,0.100000*%
%ADD11C,0.050000*%
%ADD12R,0.600000X0.400000*%
%ADD13R,0.600000X0.500000*%
%ADD14R,0.400000X0.600000*%
%ADD15R,0.340000X0.340000*%
%ADD16O,0.610000X0.250000*%
%ADD17O,0.250000X0.610000*%
%ADD18R,1.500000X1.500000*%
%ADD19R,0.450000X0.300000*%
%ADD20R,0.700000X0.250000*%
%ADD21R,0.498000X0.714000*%
G04 APERTURE END LIST*
D10*
D11*
X29325000Y-22650000D02*
G75*
G02X28125000Y-22650000I-600000J0D01*
G01*
X29325000Y-20950000D02*
G75*
G03X28125000Y-20950000I-600000J0D01*
G01*
X28125000Y-20950000D02*
G75*
G03X28125000Y-22650000I0J-850000D01*
G01*
X28500000Y-26500000D02*
G75*
G03X26900000Y-26500000I-800000J0D01*
G01*
X28500000Y-26500000D02*
X29525000Y-26500000D01*
X29325000Y-20950000D02*
X29325000Y-22650000D01*
X17525000Y-17100000D02*
G75*
G03X17025000Y-17600000I0J-500000D01*
G01*
X17025000Y-26000000D02*
G75*
G03X17525000Y-26500000I500000J0D01*
G01*
X17025000Y-17600000D02*
X17025000Y-26000000D01*
X29525000Y-17100000D02*
X17525000Y-17100000D01*
X17525000Y-26500000D02*
X26900000Y-26500000D01*
X30025000Y-21800000D02*
X30025000Y-21670000D01*
X30025000Y-21670000D02*
X30025000Y-21530000D01*
X30025000Y-21530000D02*
X30025000Y-21400000D01*
X30025000Y-21400000D02*
X30025000Y-21260000D01*
X30025000Y-21260000D02*
X30015000Y-21130000D01*
X30015000Y-21130000D02*
X30015000Y-20990000D01*
X30015000Y-20990000D02*
X30015000Y-20860000D01*
X30015000Y-20860000D02*
X30005000Y-20730000D01*
X30005000Y-20730000D02*
X30005000Y-20590000D01*
X30005000Y-20590000D02*
X29995000Y-20460000D01*
X29995000Y-20460000D02*
X29985000Y-20330000D01*
X29985000Y-20330000D02*
X29985000Y-20200000D01*
X29985000Y-20200000D02*
X29975000Y-20070000D01*
X29975000Y-20070000D02*
X29965000Y-19950000D01*
X29965000Y-19950000D02*
X29955000Y-19820000D01*
X29955000Y-19820000D02*
X29945000Y-19700000D01*
X29945000Y-19700000D02*
X29935000Y-19570000D01*
X29935000Y-19570000D02*
X29925000Y-19450000D01*
X29925000Y-19450000D02*
X29915000Y-19330000D01*
X29915000Y-19330000D02*
X29905000Y-19210000D01*
X29905000Y-19210000D02*
X29895000Y-19090000D01*
X29895000Y-19090000D02*
X29885000Y-18970000D01*
X29885000Y-18970000D02*
X29865000Y-18860000D01*
X29865000Y-18860000D02*
X29855000Y-18740000D01*
X29855000Y-18740000D02*
X29845000Y-18630000D01*
X29845000Y-18630000D02*
X29825000Y-18520000D01*
X29825000Y-18520000D02*
X29815000Y-18420000D01*
X29815000Y-18420000D02*
X29795000Y-18310000D01*
X29795000Y-18310000D02*
X29785000Y-18210000D01*
X29785000Y-18210000D02*
X29765000Y-18110000D01*
X29765000Y-18110000D02*
X29745000Y-18010000D01*
X29745000Y-18010000D02*
X29735000Y-17910000D01*
X29735000Y-17910000D02*
X29715000Y-17820000D01*
X29715000Y-17820000D02*
X29695000Y-17720000D01*
X29695000Y-17720000D02*
X29675000Y-17640000D01*
X29675000Y-17640000D02*
X29655000Y-17550000D01*
X29655000Y-17550000D02*
X29645000Y-17460000D01*
X29645000Y-17460000D02*
X29625000Y-17380000D01*
X29625000Y-17380000D02*
X29605000Y-17300000D01*
X29605000Y-17300000D02*
X29585000Y-17230000D01*
X29585000Y-17230000D02*
X29555000Y-17150000D01*
X29555000Y-17150000D02*
X29525000Y-17100000D01*
X29525000Y-26500000D02*
X29555000Y-26450000D01*
X29555000Y-26450000D02*
X29585000Y-26370000D01*
X29585000Y-26370000D02*
X29605000Y-26300000D01*
X29605000Y-26300000D02*
X29625000Y-26220000D01*
X29625000Y-26220000D02*
X29645000Y-26140000D01*
X29645000Y-26140000D02*
X29655000Y-26050000D01*
X29655000Y-26050000D02*
X29675000Y-25960000D01*
X29675000Y-25960000D02*
X29695000Y-25880000D01*
X29695000Y-25880000D02*
X29715000Y-25780000D01*
X29715000Y-25780000D02*
X29735000Y-25690000D01*
X29735000Y-25690000D02*
X29745000Y-25590000D01*
X29745000Y-25590000D02*
X29765000Y-25490000D01*
X29765000Y-25490000D02*
X29785000Y-25390000D01*
X29785000Y-25390000D02*
X29795000Y-25290000D01*
X29795000Y-25290000D02*
X29815000Y-25180000D01*
X29815000Y-25180000D02*
X29825000Y-25080000D01*
X29825000Y-25080000D02*
X29845000Y-24970000D01*
X29845000Y-24970000D02*
X29855000Y-24860000D01*
X29855000Y-24860000D02*
X29865000Y-24740000D01*
X29865000Y-24740000D02*
X29885000Y-24630000D01*
X29885000Y-24630000D02*
X29895000Y-24510000D01*
X29895000Y-24510000D02*
X29905000Y-24390000D01*
X29905000Y-24390000D02*
X29915000Y-24270000D01*
X29915000Y-24270000D02*
X29925000Y-24150000D01*
X29925000Y-24150000D02*
X29935000Y-24030000D01*
X29935000Y-24030000D02*
X29945000Y-23900000D01*
X29945000Y-23900000D02*
X29955000Y-23780000D01*
X29955000Y-23780000D02*
X29965000Y-23650000D01*
X29965000Y-23650000D02*
X29975000Y-23530000D01*
X29975000Y-23530000D02*
X29985000Y-23400000D01*
X29985000Y-23400000D02*
X29985000Y-23270000D01*
X29985000Y-23270000D02*
X29995000Y-23140000D01*
X29995000Y-23140000D02*
X30005000Y-23010000D01*
X30005000Y-23010000D02*
X30005000Y-22870000D01*
X30005000Y-22870000D02*
X30015000Y-22740000D01*
X30015000Y-22740000D02*
X30015000Y-22610000D01*
X30015000Y-22610000D02*
X30015000Y-22470000D01*
X30015000Y-22470000D02*
X30025000Y-22340000D01*
X30025000Y-22340000D02*
X30025000Y-22200000D01*
X30025000Y-22200000D02*
X30025000Y-22070000D01*
X30025000Y-22070000D02*
X30025000Y-21930000D01*
X30025000Y-21930000D02*
X30025000Y-21800000D01*
D12*
X26517600Y-21198000D03*
X26517600Y-22098000D03*
D13*
X22987000Y-18084800D03*
X21887000Y-18084800D03*
X22664600Y-25730200D03*
X21564600Y-25730200D03*
D14*
X24271400Y-20624800D03*
X25171400Y-20624800D03*
X24434800Y-24942800D03*
X23534800Y-24942800D03*
X22214000Y-19862800D03*
X23114000Y-19862800D03*
X22214000Y-18999200D03*
X23114000Y-18999200D03*
D15*
X25572800Y-21468000D03*
D16*
X25662800Y-21968000D03*
X25662800Y-22468000D03*
X25662800Y-22998000D03*
X25662800Y-23468000D03*
D15*
X25572800Y-23998000D03*
D17*
X25072800Y-24068000D03*
X24572800Y-24068000D03*
X24042800Y-24068000D03*
X23542800Y-24068000D03*
D15*
X23042800Y-23998000D03*
D16*
X22972800Y-23498000D03*
X22972800Y-22998000D03*
X22972800Y-22468000D03*
X22972800Y-21968000D03*
D15*
X23042800Y-21468000D03*
D17*
X23542800Y-21398000D03*
X24042800Y-21398000D03*
X24563800Y-21398000D03*
X25072800Y-21398000D03*
D18*
X24307800Y-22733000D03*
D19*
X25371600Y-25688800D03*
X25371600Y-24688800D03*
X26771600Y-25688800D03*
X25371600Y-25188800D03*
X26771600Y-24688800D03*
D20*
X26664400Y-18030000D03*
X26664400Y-18530000D03*
X26664400Y-19030000D03*
X26664400Y-19530000D03*
X23864400Y-19530000D03*
X23864400Y-19030000D03*
X23864400Y-18530000D03*
X23864400Y-18030000D03*
D21*
X24849400Y-19375000D03*
X24849400Y-18185000D03*
X25679400Y-19375000D03*
X25679400Y-18185000D03*
D13*
X23538000Y-25730200D03*
X24638000Y-25730200D03*
M02*
