G04 #@! TF.FileFunction,Legend,Bot*
%FSLAX46Y46*%
G04 Gerber Fmt 4.6, Leading zero omitted, Abs format (unit mm)*
G04 Created by KiCad (PCBNEW 4.0.7) date 2018. July 19., Thursday 23:16:55*
%MOMM*%
%LPD*%
G01*
G04 APERTURE LIST*
%ADD10C,0.100000*%
%ADD11C,0.125000*%
%ADD12C,0.050000*%
%ADD13C,0.150000*%
%ADD14C,0.120000*%
G04 APERTURE END LIST*
D10*
X28056248Y-23115201D02*
X27746724Y-22965201D01*
X28056248Y-22858058D02*
X27406248Y-22858058D01*
X27406248Y-23029486D01*
X27437200Y-23072344D01*
X27468152Y-23093772D01*
X27530057Y-23115201D01*
X27622914Y-23115201D01*
X27684819Y-23093772D01*
X27715771Y-23072344D01*
X27746724Y-23029486D01*
X27746724Y-22858058D01*
X27406248Y-23500915D02*
X27406248Y-23415201D01*
X27437200Y-23372344D01*
X27468152Y-23350915D01*
X27561010Y-23308058D01*
X27684819Y-23286629D01*
X27932438Y-23286629D01*
X27994343Y-23308058D01*
X28025295Y-23329486D01*
X28056248Y-23372344D01*
X28056248Y-23458058D01*
X28025295Y-23500915D01*
X27994343Y-23522344D01*
X27932438Y-23543772D01*
X27777676Y-23543772D01*
X27715771Y-23522344D01*
X27684819Y-23500915D01*
X27653867Y-23458058D01*
X27653867Y-23372344D01*
X27684819Y-23329486D01*
X27715771Y-23308058D01*
X27777676Y-23286629D01*
X29119914Y-23523343D02*
X29119914Y-23373343D01*
X29408010Y-23373343D02*
X28858010Y-23373343D01*
X28858010Y-23587629D01*
X29408010Y-23759057D02*
X28858010Y-23759057D01*
X29408010Y-23973343D02*
X28858010Y-23973343D01*
X28858010Y-24080486D01*
X28884200Y-24144771D01*
X28936581Y-24187629D01*
X28988962Y-24209057D01*
X29093724Y-24230486D01*
X29172295Y-24230486D01*
X29277057Y-24209057D01*
X29329438Y-24187629D01*
X29381819Y-24144771D01*
X29408010Y-24080486D01*
X29408010Y-23973343D01*
X28858010Y-24509057D02*
X28858010Y-24594771D01*
X28884200Y-24637629D01*
X28936581Y-24680486D01*
X29041343Y-24701914D01*
X29224676Y-24701914D01*
X29329438Y-24680486D01*
X29381819Y-24637629D01*
X29408010Y-24594771D01*
X29408010Y-24509057D01*
X29381819Y-24466200D01*
X29329438Y-24423343D01*
X29224676Y-24401914D01*
X29041343Y-24401914D01*
X28936581Y-24423343D01*
X28884200Y-24466200D01*
X28858010Y-24509057D01*
X28858010Y-25237629D02*
X29303248Y-25237629D01*
X29355629Y-25259057D01*
X29381819Y-25280486D01*
X29408010Y-25323343D01*
X29408010Y-25409057D01*
X29381819Y-25451915D01*
X29355629Y-25473343D01*
X29303248Y-25494772D01*
X28858010Y-25494772D01*
X28910390Y-25687629D02*
X28884200Y-25709058D01*
X28858010Y-25751915D01*
X28858010Y-25859058D01*
X28884200Y-25901915D01*
X28910390Y-25923344D01*
X28962771Y-25944772D01*
X29015152Y-25944772D01*
X29093724Y-25923344D01*
X29408010Y-25666201D01*
X29408010Y-25944772D01*
X29119914Y-26287629D02*
X29119914Y-26137629D01*
X29408010Y-26137629D02*
X28858010Y-26137629D01*
X28858010Y-26351915D01*
X29399667Y-17352344D02*
X28699667Y-17352344D01*
X29399667Y-17638058D01*
X28699667Y-17638058D01*
X29399667Y-17876154D02*
X28933000Y-17876154D01*
X28699667Y-17876154D02*
X28733000Y-17852344D01*
X28766333Y-17876154D01*
X28733000Y-17899963D01*
X28699667Y-17876154D01*
X28766333Y-17876154D01*
X28933000Y-18042820D02*
X28933000Y-18233296D01*
X28699667Y-18114249D02*
X29299667Y-18114249D01*
X29366333Y-18138058D01*
X29399667Y-18185677D01*
X29399667Y-18233296D01*
X29399667Y-18399963D02*
X28933000Y-18399963D01*
X29066333Y-18399963D02*
X28999667Y-18423772D01*
X28966333Y-18447582D01*
X28933000Y-18495201D01*
X28933000Y-18542820D01*
X29399667Y-18780915D02*
X29366333Y-18733296D01*
X29333000Y-18709487D01*
X29266333Y-18685677D01*
X29066333Y-18685677D01*
X28999667Y-18709487D01*
X28966333Y-18733296D01*
X28933000Y-18780915D01*
X28933000Y-18852344D01*
X28966333Y-18899963D01*
X28999667Y-18923772D01*
X29066333Y-18947582D01*
X29266333Y-18947582D01*
X29333000Y-18923772D01*
X29366333Y-18899963D01*
X29399667Y-18852344D01*
X29399667Y-18780915D01*
X29399667Y-19161868D02*
X28699667Y-19161868D01*
X29133000Y-19209487D02*
X29399667Y-19352344D01*
X28933000Y-19352344D02*
X29199667Y-19161868D01*
X29366333Y-19757106D02*
X29399667Y-19709487D01*
X29399667Y-19614249D01*
X29366333Y-19566630D01*
X29299667Y-19542820D01*
X29033000Y-19542820D01*
X28966333Y-19566630D01*
X28933000Y-19614249D01*
X28933000Y-19709487D01*
X28966333Y-19757106D01*
X29033000Y-19780915D01*
X29099667Y-19780915D01*
X29166333Y-19542820D01*
X28933000Y-19947582D02*
X29399667Y-20066629D01*
X28933000Y-20185677D02*
X29399667Y-20066629D01*
X29566333Y-20019010D01*
X29599667Y-19995201D01*
X29633000Y-19947582D01*
D11*
X18829256Y-25221400D02*
X18448304Y-25221400D01*
X18638780Y-25488067D02*
X18638780Y-24954733D01*
X17972113Y-24788067D02*
X18210208Y-24788067D01*
X18234018Y-25121400D01*
X18210208Y-25088067D01*
X18162589Y-25054733D01*
X18043542Y-25054733D01*
X17995923Y-25088067D01*
X17972113Y-25121400D01*
X17948304Y-25188067D01*
X17948304Y-25354733D01*
X17972113Y-25421400D01*
X17995923Y-25454733D01*
X18043542Y-25488067D01*
X18162589Y-25488067D01*
X18210208Y-25454733D01*
X18234018Y-25421400D01*
X17805447Y-24788067D02*
X17638780Y-25488067D01*
X17472114Y-24788067D01*
X18062533Y-22043200D02*
X18086343Y-22076533D01*
X18157771Y-22109867D01*
X18205390Y-22109867D01*
X18276819Y-22076533D01*
X18324438Y-22009867D01*
X18348247Y-21943200D01*
X18372057Y-21809867D01*
X18372057Y-21709867D01*
X18348247Y-21576533D01*
X18324438Y-21509867D01*
X18276819Y-21443200D01*
X18205390Y-21409867D01*
X18157771Y-21409867D01*
X18086343Y-21443200D01*
X18062533Y-21476533D01*
X17872057Y-21476533D02*
X17848247Y-21443200D01*
X17800628Y-21409867D01*
X17681581Y-21409867D01*
X17633962Y-21443200D01*
X17610152Y-21476533D01*
X17586343Y-21543200D01*
X17586343Y-21609867D01*
X17610152Y-21709867D01*
X17895866Y-22109867D01*
X17586343Y-22109867D01*
X17372057Y-22109867D02*
X17372057Y-21409867D01*
X17253010Y-21409867D01*
X17181581Y-21443200D01*
X17133962Y-21509867D01*
X17110153Y-21576533D01*
X17086343Y-21709867D01*
X17086343Y-21809867D01*
X17110153Y-21943200D01*
X17133962Y-22009867D01*
X17181581Y-22076533D01*
X17253010Y-22109867D01*
X17372057Y-22109867D01*
X20277876Y-22211467D02*
X20277876Y-21511467D01*
X20158829Y-21511467D01*
X20087400Y-21544800D01*
X20039781Y-21611467D01*
X20015972Y-21678133D01*
X19992162Y-21811467D01*
X19992162Y-21911467D01*
X20015972Y-22044800D01*
X20039781Y-22111467D01*
X20087400Y-22178133D01*
X20158829Y-22211467D01*
X20277876Y-22211467D01*
X19777876Y-21944800D02*
X19396924Y-21944800D01*
X19587400Y-22211467D02*
X19587400Y-21678133D01*
X20227076Y-19722267D02*
X20227076Y-19022267D01*
X20108029Y-19022267D01*
X20036600Y-19055600D01*
X19988981Y-19122267D01*
X19965172Y-19188933D01*
X19941362Y-19322267D01*
X19941362Y-19422267D01*
X19965172Y-19555600D01*
X19988981Y-19622267D01*
X20036600Y-19688933D01*
X20108029Y-19722267D01*
X20227076Y-19722267D01*
X19727076Y-19455600D02*
X19346124Y-19455600D01*
X18138733Y-19401600D02*
X18162543Y-19434933D01*
X18233971Y-19468267D01*
X18281590Y-19468267D01*
X18353019Y-19434933D01*
X18400638Y-19368267D01*
X18424447Y-19301600D01*
X18448257Y-19168267D01*
X18448257Y-19068267D01*
X18424447Y-18934933D01*
X18400638Y-18868267D01*
X18353019Y-18801600D01*
X18281590Y-18768267D01*
X18233971Y-18768267D01*
X18162543Y-18801600D01*
X18138733Y-18834933D01*
X17948257Y-18834933D02*
X17924447Y-18801600D01*
X17876828Y-18768267D01*
X17757781Y-18768267D01*
X17710162Y-18801600D01*
X17686352Y-18834933D01*
X17662543Y-18901600D01*
X17662543Y-18968267D01*
X17686352Y-19068267D01*
X17972066Y-19468267D01*
X17662543Y-19468267D01*
X17448257Y-19468267D02*
X17448257Y-18768267D01*
X17162543Y-19468267D02*
X17376829Y-19068267D01*
X17162543Y-18768267D02*
X17448257Y-19168267D01*
X18465753Y-17353800D02*
X18513372Y-17320467D01*
X18584800Y-17320467D01*
X18656229Y-17353800D01*
X18703848Y-17420467D01*
X18727657Y-17487133D01*
X18751467Y-17620467D01*
X18751467Y-17720467D01*
X18727657Y-17853800D01*
X18703848Y-17920467D01*
X18656229Y-17987133D01*
X18584800Y-18020467D01*
X18537181Y-18020467D01*
X18465753Y-17987133D01*
X18441943Y-17953800D01*
X18441943Y-17720467D01*
X18537181Y-17720467D01*
X18227657Y-18020467D02*
X18227657Y-17320467D01*
X17941943Y-18020467D01*
X17941943Y-17320467D01*
X17703847Y-18020467D02*
X17703847Y-17320467D01*
X17584800Y-17320467D01*
X17513371Y-17353800D01*
X17465752Y-17420467D01*
X17441943Y-17487133D01*
X17418133Y-17620467D01*
X17418133Y-17720467D01*
X17441943Y-17853800D01*
X17465752Y-17920467D01*
X17513371Y-17987133D01*
X17584800Y-18020467D01*
X17703847Y-18020467D01*
D12*
X29325000Y-22650000D02*
G75*
G02X28125000Y-22650000I-600000J0D01*
G01*
X29325000Y-20950000D02*
G75*
G03X28125000Y-20950000I-600000J0D01*
G01*
X28125000Y-20950000D02*
G75*
G03X28125000Y-22650000I0J-850000D01*
G01*
X28500000Y-26500000D02*
G75*
G03X26900000Y-26500000I-800000J0D01*
G01*
X28500000Y-26500000D02*
X29525000Y-26500000D01*
X29325000Y-20950000D02*
X29325000Y-22650000D01*
X17525000Y-17100000D02*
G75*
G03X17025000Y-17600000I0J-500000D01*
G01*
X17025000Y-26000000D02*
G75*
G03X17525000Y-26500000I500000J0D01*
G01*
X17025000Y-17600000D02*
X17025000Y-26000000D01*
X29525000Y-17100000D02*
X17525000Y-17100000D01*
X17525000Y-26500000D02*
X26900000Y-26500000D01*
X30025000Y-21800000D02*
X30025000Y-21670000D01*
X30025000Y-21670000D02*
X30025000Y-21530000D01*
X30025000Y-21530000D02*
X30025000Y-21400000D01*
X30025000Y-21400000D02*
X30025000Y-21260000D01*
X30025000Y-21260000D02*
X30015000Y-21130000D01*
X30015000Y-21130000D02*
X30015000Y-20990000D01*
X30015000Y-20990000D02*
X30015000Y-20860000D01*
X30015000Y-20860000D02*
X30005000Y-20730000D01*
X30005000Y-20730000D02*
X30005000Y-20590000D01*
X30005000Y-20590000D02*
X29995000Y-20460000D01*
X29995000Y-20460000D02*
X29985000Y-20330000D01*
X29985000Y-20330000D02*
X29985000Y-20200000D01*
X29985000Y-20200000D02*
X29975000Y-20070000D01*
X29975000Y-20070000D02*
X29965000Y-19950000D01*
X29965000Y-19950000D02*
X29955000Y-19820000D01*
X29955000Y-19820000D02*
X29945000Y-19700000D01*
X29945000Y-19700000D02*
X29935000Y-19570000D01*
X29935000Y-19570000D02*
X29925000Y-19450000D01*
X29925000Y-19450000D02*
X29915000Y-19330000D01*
X29915000Y-19330000D02*
X29905000Y-19210000D01*
X29905000Y-19210000D02*
X29895000Y-19090000D01*
X29895000Y-19090000D02*
X29885000Y-18970000D01*
X29885000Y-18970000D02*
X29865000Y-18860000D01*
X29865000Y-18860000D02*
X29855000Y-18740000D01*
X29855000Y-18740000D02*
X29845000Y-18630000D01*
X29845000Y-18630000D02*
X29825000Y-18520000D01*
X29825000Y-18520000D02*
X29815000Y-18420000D01*
X29815000Y-18420000D02*
X29795000Y-18310000D01*
X29795000Y-18310000D02*
X29785000Y-18210000D01*
X29785000Y-18210000D02*
X29765000Y-18110000D01*
X29765000Y-18110000D02*
X29745000Y-18010000D01*
X29745000Y-18010000D02*
X29735000Y-17910000D01*
X29735000Y-17910000D02*
X29715000Y-17820000D01*
X29715000Y-17820000D02*
X29695000Y-17720000D01*
X29695000Y-17720000D02*
X29675000Y-17640000D01*
X29675000Y-17640000D02*
X29655000Y-17550000D01*
X29655000Y-17550000D02*
X29645000Y-17460000D01*
X29645000Y-17460000D02*
X29625000Y-17380000D01*
X29625000Y-17380000D02*
X29605000Y-17300000D01*
X29605000Y-17300000D02*
X29585000Y-17230000D01*
X29585000Y-17230000D02*
X29555000Y-17150000D01*
X29555000Y-17150000D02*
X29525000Y-17100000D01*
X29525000Y-26500000D02*
X29555000Y-26450000D01*
X29555000Y-26450000D02*
X29585000Y-26370000D01*
X29585000Y-26370000D02*
X29605000Y-26300000D01*
X29605000Y-26300000D02*
X29625000Y-26220000D01*
X29625000Y-26220000D02*
X29645000Y-26140000D01*
X29645000Y-26140000D02*
X29655000Y-26050000D01*
X29655000Y-26050000D02*
X29675000Y-25960000D01*
X29675000Y-25960000D02*
X29695000Y-25880000D01*
X29695000Y-25880000D02*
X29715000Y-25780000D01*
X29715000Y-25780000D02*
X29735000Y-25690000D01*
X29735000Y-25690000D02*
X29745000Y-25590000D01*
X29745000Y-25590000D02*
X29765000Y-25490000D01*
X29765000Y-25490000D02*
X29785000Y-25390000D01*
X29785000Y-25390000D02*
X29795000Y-25290000D01*
X29795000Y-25290000D02*
X29815000Y-25180000D01*
X29815000Y-25180000D02*
X29825000Y-25080000D01*
X29825000Y-25080000D02*
X29845000Y-24970000D01*
X29845000Y-24970000D02*
X29855000Y-24860000D01*
X29855000Y-24860000D02*
X29865000Y-24740000D01*
X29865000Y-24740000D02*
X29885000Y-24630000D01*
X29885000Y-24630000D02*
X29895000Y-24510000D01*
X29895000Y-24510000D02*
X29905000Y-24390000D01*
X29905000Y-24390000D02*
X29915000Y-24270000D01*
X29915000Y-24270000D02*
X29925000Y-24150000D01*
X29925000Y-24150000D02*
X29935000Y-24030000D01*
X29935000Y-24030000D02*
X29945000Y-23900000D01*
X29945000Y-23900000D02*
X29955000Y-23780000D01*
X29955000Y-23780000D02*
X29965000Y-23650000D01*
X29965000Y-23650000D02*
X29975000Y-23530000D01*
X29975000Y-23530000D02*
X29985000Y-23400000D01*
X29985000Y-23400000D02*
X29985000Y-23270000D01*
X29985000Y-23270000D02*
X29995000Y-23140000D01*
X29995000Y-23140000D02*
X30005000Y-23010000D01*
X30005000Y-23010000D02*
X30005000Y-22870000D01*
X30005000Y-22870000D02*
X30015000Y-22740000D01*
X30015000Y-22740000D02*
X30015000Y-22610000D01*
X30015000Y-22610000D02*
X30015000Y-22470000D01*
X30015000Y-22470000D02*
X30025000Y-22340000D01*
X30025000Y-22340000D02*
X30025000Y-22200000D01*
X30025000Y-22200000D02*
X30025000Y-22070000D01*
X30025000Y-22070000D02*
X30025000Y-21930000D01*
X30025000Y-21930000D02*
X30025000Y-21800000D01*
D13*
X26517600Y-21548000D02*
X26767600Y-21748000D01*
X26267600Y-21748000D02*
X26517600Y-21548000D01*
X25992600Y-21898000D02*
X25992600Y-20848000D01*
X27042600Y-21898000D02*
X27042600Y-20848000D01*
X22187000Y-17609800D02*
X22687000Y-17609800D01*
X22687000Y-18559800D02*
X22187000Y-18559800D01*
X21864600Y-25255200D02*
X22364600Y-25255200D01*
X22364600Y-26205200D02*
X21864600Y-26205200D01*
X24971400Y-21149800D02*
X24471400Y-21149800D01*
X24471400Y-20099800D02*
X24971400Y-20099800D01*
X23734800Y-24417800D02*
X24234800Y-24417800D01*
X24234800Y-25467800D02*
X23734800Y-25467800D01*
D14*
X22914000Y-20392800D02*
X22414000Y-20392800D01*
X22414000Y-19332800D02*
X22914000Y-19332800D01*
X22914000Y-19529200D02*
X22414000Y-19529200D01*
X22414000Y-18469200D02*
X22914000Y-18469200D01*
D13*
X22557800Y-20983000D02*
X25557800Y-20983000D01*
X25557800Y-20983000D02*
X26057800Y-21483000D01*
X26057800Y-21483000D02*
X26057800Y-24483000D01*
X26057800Y-24483000D02*
X22557800Y-24483000D01*
X22557800Y-24483000D02*
X22557800Y-20983000D01*
X25807800Y-21233000D02*
X25807800Y-21233000D01*
X22807800Y-21233000D02*
X22807800Y-21233000D01*
X22807800Y-21233000D02*
X22807800Y-21233000D01*
X25807800Y-24233000D02*
X25807800Y-24233000D01*
X25807800Y-24233000D02*
X25807800Y-24233000D01*
X22807800Y-24233000D02*
X22807800Y-24233000D01*
X22807800Y-24233000D02*
X22807800Y-24233000D01*
D14*
X26721600Y-24288800D02*
X25421600Y-24288800D01*
X25171600Y-26088800D02*
X26721600Y-26088800D01*
D13*
X26314400Y-20405000D02*
X24214400Y-20405000D01*
X27089400Y-17155000D02*
X24214400Y-17155000D01*
D14*
X24338000Y-26200200D02*
X23838000Y-26200200D01*
X23838000Y-25260200D02*
X24338000Y-25260200D01*
D11*
X26810447Y-23202067D02*
X26810447Y-22502067D01*
X26691400Y-22502067D01*
X26619971Y-22535400D01*
X26572352Y-22602067D01*
X26548543Y-22668733D01*
X26524733Y-22802067D01*
X26524733Y-22902067D01*
X26548543Y-23035400D01*
X26572352Y-23102067D01*
X26619971Y-23168733D01*
X26691400Y-23202067D01*
X26810447Y-23202067D01*
X26048543Y-23202067D02*
X26334257Y-23202067D01*
X26191400Y-23202067D02*
X26191400Y-22502067D01*
X26239019Y-22602067D01*
X26286638Y-22668733D01*
X26334257Y-22702067D01*
X21216133Y-17776000D02*
X21239943Y-17809333D01*
X21311371Y-17842667D01*
X21358990Y-17842667D01*
X21430419Y-17809333D01*
X21478038Y-17742667D01*
X21501847Y-17676000D01*
X21525657Y-17542667D01*
X21525657Y-17442667D01*
X21501847Y-17309333D01*
X21478038Y-17242667D01*
X21430419Y-17176000D01*
X21358990Y-17142667D01*
X21311371Y-17142667D01*
X21239943Y-17176000D01*
X21216133Y-17209333D01*
X20739943Y-17842667D02*
X21025657Y-17842667D01*
X20882800Y-17842667D02*
X20882800Y-17142667D01*
X20930419Y-17242667D01*
X20978038Y-17309333D01*
X21025657Y-17342667D01*
X21114533Y-25167400D02*
X21138343Y-25200733D01*
X21209771Y-25234067D01*
X21257390Y-25234067D01*
X21328819Y-25200733D01*
X21376438Y-25134067D01*
X21400247Y-25067400D01*
X21424057Y-24934067D01*
X21424057Y-24834067D01*
X21400247Y-24700733D01*
X21376438Y-24634067D01*
X21328819Y-24567400D01*
X21257390Y-24534067D01*
X21209771Y-24534067D01*
X21138343Y-24567400D01*
X21114533Y-24600733D01*
X20947866Y-24534067D02*
X20638343Y-24534067D01*
X20805009Y-24800733D01*
X20733581Y-24800733D01*
X20685962Y-24834067D01*
X20662152Y-24867400D01*
X20638343Y-24934067D01*
X20638343Y-25100733D01*
X20662152Y-25167400D01*
X20685962Y-25200733D01*
X20733581Y-25234067D01*
X20876438Y-25234067D01*
X20924057Y-25200733D01*
X20947866Y-25167400D01*
X23629133Y-20941467D02*
X23795800Y-20608133D01*
X23914847Y-20941467D02*
X23914847Y-20241467D01*
X23724371Y-20241467D01*
X23676752Y-20274800D01*
X23652943Y-20308133D01*
X23629133Y-20374800D01*
X23629133Y-20474800D01*
X23652943Y-20541467D01*
X23676752Y-20574800D01*
X23724371Y-20608133D01*
X23914847Y-20608133D01*
X23462466Y-20241467D02*
X23152943Y-20241467D01*
X23319609Y-20508133D01*
X23248181Y-20508133D01*
X23200562Y-20541467D01*
X23176752Y-20574800D01*
X23152943Y-20641467D01*
X23152943Y-20808133D01*
X23176752Y-20874800D01*
X23200562Y-20908133D01*
X23248181Y-20941467D01*
X23391038Y-20941467D01*
X23438657Y-20908133D01*
X23462466Y-20874800D01*
X22105133Y-24370467D02*
X22271800Y-24037133D01*
X22390847Y-24370467D02*
X22390847Y-23670467D01*
X22200371Y-23670467D01*
X22152752Y-23703800D01*
X22128943Y-23737133D01*
X22105133Y-23803800D01*
X22105133Y-23903800D01*
X22128943Y-23970467D01*
X22152752Y-24003800D01*
X22200371Y-24037133D01*
X22390847Y-24037133D01*
X21676562Y-23903800D02*
X21676562Y-24370467D01*
X21795609Y-23637133D02*
X21914657Y-24137133D01*
X21605133Y-24137133D01*
X22460733Y-20992267D02*
X22627400Y-20658933D01*
X22746447Y-20992267D02*
X22746447Y-20292267D01*
X22555971Y-20292267D01*
X22508352Y-20325600D01*
X22484543Y-20358933D01*
X22460733Y-20425600D01*
X22460733Y-20525600D01*
X22484543Y-20592267D01*
X22508352Y-20625600D01*
X22555971Y-20658933D01*
X22746447Y-20658933D01*
X22008352Y-20292267D02*
X22246447Y-20292267D01*
X22270257Y-20625600D01*
X22246447Y-20592267D01*
X22198828Y-20558933D01*
X22079781Y-20558933D01*
X22032162Y-20592267D01*
X22008352Y-20625600D01*
X21984543Y-20692267D01*
X21984543Y-20858933D01*
X22008352Y-20925600D01*
X22032162Y-20958933D01*
X22079781Y-20992267D01*
X22198828Y-20992267D01*
X22246447Y-20958933D01*
X22270257Y-20925600D01*
X21622533Y-19595267D02*
X21789200Y-19261933D01*
X21908247Y-19595267D02*
X21908247Y-18895267D01*
X21717771Y-18895267D01*
X21670152Y-18928600D01*
X21646343Y-18961933D01*
X21622533Y-19028600D01*
X21622533Y-19128600D01*
X21646343Y-19195267D01*
X21670152Y-19228600D01*
X21717771Y-19261933D01*
X21908247Y-19261933D01*
X21455866Y-18895267D02*
X21122533Y-18895267D01*
X21336819Y-19595267D01*
X22377352Y-21384467D02*
X22377352Y-21951133D01*
X22353543Y-22017800D01*
X22329733Y-22051133D01*
X22282114Y-22084467D01*
X22186876Y-22084467D01*
X22139257Y-22051133D01*
X22115448Y-22017800D01*
X22091638Y-21951133D01*
X22091638Y-21384467D01*
X21591638Y-22084467D02*
X21877352Y-22084467D01*
X21734495Y-22084467D02*
X21734495Y-21384467D01*
X21782114Y-21484467D01*
X21829733Y-21551133D01*
X21877352Y-21584467D01*
X27939952Y-24813467D02*
X27939952Y-25380133D01*
X27916143Y-25446800D01*
X27892333Y-25480133D01*
X27844714Y-25513467D01*
X27749476Y-25513467D01*
X27701857Y-25480133D01*
X27678048Y-25446800D01*
X27654238Y-25380133D01*
X27654238Y-24813467D01*
X27463761Y-24813467D02*
X27154238Y-24813467D01*
X27320904Y-25080133D01*
X27249476Y-25080133D01*
X27201857Y-25113467D01*
X27178047Y-25146800D01*
X27154238Y-25213467D01*
X27154238Y-25380133D01*
X27178047Y-25446800D01*
X27201857Y-25480133D01*
X27249476Y-25513467D01*
X27392333Y-25513467D01*
X27439952Y-25480133D01*
X27463761Y-25446800D01*
X27965352Y-17371267D02*
X27965352Y-17937933D01*
X27941543Y-18004600D01*
X27917733Y-18037933D01*
X27870114Y-18071267D01*
X27774876Y-18071267D01*
X27727257Y-18037933D01*
X27703448Y-18004600D01*
X27679638Y-17937933D01*
X27679638Y-17371267D01*
X27227257Y-17604600D02*
X27227257Y-18071267D01*
X27346304Y-17337933D02*
X27465352Y-17837933D01*
X27155828Y-17837933D01*
X22130533Y-25116600D02*
X22154343Y-25149933D01*
X22225771Y-25183267D01*
X22273390Y-25183267D01*
X22344819Y-25149933D01*
X22392438Y-25083267D01*
X22416247Y-25016600D01*
X22440057Y-24883267D01*
X22440057Y-24783267D01*
X22416247Y-24649933D01*
X22392438Y-24583267D01*
X22344819Y-24516600D01*
X22273390Y-24483267D01*
X22225771Y-24483267D01*
X22154343Y-24516600D01*
X22130533Y-24549933D01*
X21701962Y-24716600D02*
X21701962Y-25183267D01*
X21821009Y-24449933D02*
X21940057Y-24949933D01*
X21630533Y-24949933D01*
M02*
