G04 #@! TF.FileFunction,Copper,L1,Top,Signal*
%FSLAX46Y46*%
G04 Gerber Fmt 4.6, Leading zero omitted, Abs format (unit mm)*
G04 Created by KiCad (PCBNEW 4.0.7) date 2018. July 19., Thursday 23:16:55*
%MOMM*%
%LPD*%
G01*
G04 APERTURE LIST*
%ADD10C,0.100000*%
%ADD11C,0.050000*%
%ADD12R,7.500000X2.250000*%
%ADD13R,7.500000X1.750000*%
%ADD14R,1.000000X1.000000*%
%ADD15C,0.600000*%
%ADD16C,0.300000*%
%ADD17C,0.152400*%
%ADD18C,0.200000*%
%ADD19C,0.254000*%
G04 APERTURE END LIST*
D10*
D11*
X29325000Y-22650000D02*
G75*
G02X28125000Y-22650000I-600000J0D01*
G01*
X29325000Y-20950000D02*
G75*
G03X28125000Y-20950000I-600000J0D01*
G01*
X28125000Y-20950000D02*
G75*
G03X28125000Y-22650000I0J-850000D01*
G01*
X28500000Y-26500000D02*
G75*
G03X26900000Y-26500000I-800000J0D01*
G01*
X28500000Y-26500000D02*
X29525000Y-26500000D01*
X29325000Y-20950000D02*
X29325000Y-22650000D01*
X17525000Y-17100000D02*
G75*
G03X17025000Y-17600000I0J-500000D01*
G01*
X17025000Y-26000000D02*
G75*
G03X17525000Y-26500000I500000J0D01*
G01*
X17025000Y-17600000D02*
X17025000Y-26000000D01*
X29525000Y-17100000D02*
X17525000Y-17100000D01*
X17525000Y-26500000D02*
X26900000Y-26500000D01*
X30025000Y-21800000D02*
X30025000Y-21670000D01*
X30025000Y-21670000D02*
X30025000Y-21530000D01*
X30025000Y-21530000D02*
X30025000Y-21400000D01*
X30025000Y-21400000D02*
X30025000Y-21260000D01*
X30025000Y-21260000D02*
X30015000Y-21130000D01*
X30015000Y-21130000D02*
X30015000Y-20990000D01*
X30015000Y-20990000D02*
X30015000Y-20860000D01*
X30015000Y-20860000D02*
X30005000Y-20730000D01*
X30005000Y-20730000D02*
X30005000Y-20590000D01*
X30005000Y-20590000D02*
X29995000Y-20460000D01*
X29995000Y-20460000D02*
X29985000Y-20330000D01*
X29985000Y-20330000D02*
X29985000Y-20200000D01*
X29985000Y-20200000D02*
X29975000Y-20070000D01*
X29975000Y-20070000D02*
X29965000Y-19950000D01*
X29965000Y-19950000D02*
X29955000Y-19820000D01*
X29955000Y-19820000D02*
X29945000Y-19700000D01*
X29945000Y-19700000D02*
X29935000Y-19570000D01*
X29935000Y-19570000D02*
X29925000Y-19450000D01*
X29925000Y-19450000D02*
X29915000Y-19330000D01*
X29915000Y-19330000D02*
X29905000Y-19210000D01*
X29905000Y-19210000D02*
X29895000Y-19090000D01*
X29895000Y-19090000D02*
X29885000Y-18970000D01*
X29885000Y-18970000D02*
X29865000Y-18860000D01*
X29865000Y-18860000D02*
X29855000Y-18740000D01*
X29855000Y-18740000D02*
X29845000Y-18630000D01*
X29845000Y-18630000D02*
X29825000Y-18520000D01*
X29825000Y-18520000D02*
X29815000Y-18420000D01*
X29815000Y-18420000D02*
X29795000Y-18310000D01*
X29795000Y-18310000D02*
X29785000Y-18210000D01*
X29785000Y-18210000D02*
X29765000Y-18110000D01*
X29765000Y-18110000D02*
X29745000Y-18010000D01*
X29745000Y-18010000D02*
X29735000Y-17910000D01*
X29735000Y-17910000D02*
X29715000Y-17820000D01*
X29715000Y-17820000D02*
X29695000Y-17720000D01*
X29695000Y-17720000D02*
X29675000Y-17640000D01*
X29675000Y-17640000D02*
X29655000Y-17550000D01*
X29655000Y-17550000D02*
X29645000Y-17460000D01*
X29645000Y-17460000D02*
X29625000Y-17380000D01*
X29625000Y-17380000D02*
X29605000Y-17300000D01*
X29605000Y-17300000D02*
X29585000Y-17230000D01*
X29585000Y-17230000D02*
X29555000Y-17150000D01*
X29555000Y-17150000D02*
X29525000Y-17100000D01*
X29525000Y-26500000D02*
X29555000Y-26450000D01*
X29555000Y-26450000D02*
X29585000Y-26370000D01*
X29585000Y-26370000D02*
X29605000Y-26300000D01*
X29605000Y-26300000D02*
X29625000Y-26220000D01*
X29625000Y-26220000D02*
X29645000Y-26140000D01*
X29645000Y-26140000D02*
X29655000Y-26050000D01*
X29655000Y-26050000D02*
X29675000Y-25960000D01*
X29675000Y-25960000D02*
X29695000Y-25880000D01*
X29695000Y-25880000D02*
X29715000Y-25780000D01*
X29715000Y-25780000D02*
X29735000Y-25690000D01*
X29735000Y-25690000D02*
X29745000Y-25590000D01*
X29745000Y-25590000D02*
X29765000Y-25490000D01*
X29765000Y-25490000D02*
X29785000Y-25390000D01*
X29785000Y-25390000D02*
X29795000Y-25290000D01*
X29795000Y-25290000D02*
X29815000Y-25180000D01*
X29815000Y-25180000D02*
X29825000Y-25080000D01*
X29825000Y-25080000D02*
X29845000Y-24970000D01*
X29845000Y-24970000D02*
X29855000Y-24860000D01*
X29855000Y-24860000D02*
X29865000Y-24740000D01*
X29865000Y-24740000D02*
X29885000Y-24630000D01*
X29885000Y-24630000D02*
X29895000Y-24510000D01*
X29895000Y-24510000D02*
X29905000Y-24390000D01*
X29905000Y-24390000D02*
X29915000Y-24270000D01*
X29915000Y-24270000D02*
X29925000Y-24150000D01*
X29925000Y-24150000D02*
X29935000Y-24030000D01*
X29935000Y-24030000D02*
X29945000Y-23900000D01*
X29945000Y-23900000D02*
X29955000Y-23780000D01*
X29955000Y-23780000D02*
X29965000Y-23650000D01*
X29965000Y-23650000D02*
X29975000Y-23530000D01*
X29975000Y-23530000D02*
X29985000Y-23400000D01*
X29985000Y-23400000D02*
X29985000Y-23270000D01*
X29985000Y-23270000D02*
X29995000Y-23140000D01*
X29995000Y-23140000D02*
X30005000Y-23010000D01*
X30005000Y-23010000D02*
X30005000Y-22870000D01*
X30005000Y-22870000D02*
X30015000Y-22740000D01*
X30015000Y-22740000D02*
X30015000Y-22610000D01*
X30015000Y-22610000D02*
X30015000Y-22470000D01*
X30015000Y-22470000D02*
X30025000Y-22340000D01*
X30025000Y-22340000D02*
X30025000Y-22200000D01*
X30025000Y-22200000D02*
X30025000Y-22070000D01*
X30025000Y-22070000D02*
X30025000Y-21930000D01*
X30025000Y-21930000D02*
X30025000Y-21800000D01*
D12*
X21850000Y-25100000D03*
X21850000Y-18600000D03*
D13*
X21850000Y-22850000D03*
X21850000Y-20850000D03*
D10*
G36*
X18100000Y-23975000D02*
X18100000Y-26225000D01*
X17100000Y-25225000D01*
X17100000Y-24975000D01*
X18100000Y-23975000D01*
X18100000Y-23975000D01*
G37*
G36*
X18100000Y-17475000D02*
X18100000Y-19725000D01*
X17100000Y-18725000D01*
X17100000Y-18475000D01*
X18100000Y-17475000D01*
X18100000Y-17475000D01*
G37*
D14*
X17600000Y-24475000D03*
X17600000Y-19225000D03*
D15*
X27058216Y-20555816D03*
X27076400Y-22707598D03*
X26162002Y-25171400D03*
X22098000Y-25069800D03*
X20904200Y-25069800D03*
X26313952Y-20445386D03*
X27762200Y-23901398D03*
X26085800Y-25984200D03*
X21031400Y-18719800D03*
X26146788Y-24374959D03*
X19723885Y-22697490D03*
X26499849Y-23710525D03*
X19703060Y-20909979D03*
D16*
X27076400Y-20574000D02*
X27058216Y-20555816D01*
X27076400Y-22707598D02*
X27076400Y-20574000D01*
X27120001Y-23175463D02*
X27076400Y-23131862D01*
X27076400Y-23131862D02*
X27076400Y-22707598D01*
X27120001Y-24637665D02*
X27120001Y-23175463D01*
X26586266Y-25171400D02*
X27120001Y-24637665D01*
X26162002Y-25171400D02*
X26586266Y-25171400D01*
X17600000Y-25100000D02*
X17600000Y-24475000D01*
X17600000Y-25100000D02*
X20874000Y-25100000D01*
X20874000Y-25100000D02*
X20904200Y-25069800D01*
D17*
X26339800Y-18600000D02*
X26492200Y-18600000D01*
D16*
X21850000Y-18600000D02*
X26339800Y-18600000D01*
X26365200Y-18592800D02*
X29159200Y-18592800D01*
X29616400Y-23418800D02*
X29133802Y-23901398D01*
X29159200Y-18592800D02*
X29616400Y-19050000D01*
X29616400Y-19050000D02*
X29616400Y-23418800D01*
X29133802Y-23901398D02*
X27762200Y-23901398D01*
X26313952Y-20021122D02*
X26313952Y-20445386D01*
X26313952Y-18778248D02*
X26313952Y-20021122D01*
X26492200Y-18600000D02*
X26313952Y-18778248D01*
X27762200Y-24325662D02*
X27762200Y-23901398D01*
X27762200Y-24732064D02*
X27762200Y-24325662D01*
X26510064Y-25984200D02*
X27762200Y-24732064D01*
X26085800Y-25984200D02*
X26510064Y-25984200D01*
X17600000Y-18600000D02*
X21850000Y-18600000D01*
X17600000Y-18600000D02*
X17600000Y-19225000D01*
D18*
X21031400Y-18719800D02*
X21730200Y-18719800D01*
X21730200Y-18719800D02*
X21850000Y-18600000D01*
X25800000Y-22850000D02*
X25852869Y-22902869D01*
X21850000Y-22850000D02*
X25800000Y-22850000D01*
X25852869Y-22902869D02*
X25852869Y-24081040D01*
X25852869Y-24081040D02*
X26146788Y-24374959D01*
X25800000Y-20850000D02*
X26499849Y-21549849D01*
X26499849Y-23286261D02*
X26499849Y-23710525D01*
X21850000Y-20850000D02*
X25800000Y-20850000D01*
X26499849Y-21549849D02*
X26499849Y-23286261D01*
D19*
G36*
X29654037Y-22843003D02*
X29655669Y-22856584D01*
X29653000Y-22870000D01*
X29653000Y-22996484D01*
X29634037Y-23243003D01*
X29635669Y-23256584D01*
X29633000Y-23270000D01*
X29633000Y-23386484D01*
X29624124Y-23501872D01*
X29614216Y-23620768D01*
X29614345Y-23621903D01*
X29614037Y-23623003D01*
X29604124Y-23751872D01*
X29594216Y-23870768D01*
X29594345Y-23871903D01*
X29594037Y-23873003D01*
X29584124Y-24001872D01*
X29544216Y-24480768D01*
X29535630Y-24583794D01*
X29518678Y-24677032D01*
X29518962Y-24694232D01*
X29514216Y-24710768D01*
X29504323Y-24829484D01*
X29495868Y-24922487D01*
X29478678Y-25017032D01*
X29478914Y-25031312D01*
X29474747Y-25044974D01*
X29466152Y-25130927D01*
X29448678Y-25227032D01*
X29448914Y-25241312D01*
X29444747Y-25254974D01*
X29436459Y-25337851D01*
X29419836Y-25420967D01*
X29419836Y-25420968D01*
X29399836Y-25520967D01*
X29399818Y-25538348D01*
X29394747Y-25554974D01*
X29386834Y-25634108D01*
X29371382Y-25703640D01*
X29371297Y-25707451D01*
X29369836Y-25710968D01*
X29351479Y-25802751D01*
X29333510Y-25874627D01*
X29333281Y-25879331D01*
X29331382Y-25883641D01*
X29311382Y-25973640D01*
X29310953Y-25992832D01*
X29305153Y-26011128D01*
X29297767Y-26077598D01*
X29283510Y-26134627D01*
X29283510Y-26134628D01*
X29280167Y-26148000D01*
X29159200Y-26148000D01*
X29159200Y-23490972D01*
X29344825Y-23366941D01*
X29441943Y-23269823D01*
X29572003Y-23075174D01*
X29572006Y-23075171D01*
X29607739Y-22988902D01*
X29624565Y-22948282D01*
X29624565Y-22948276D01*
X29659417Y-22773063D01*
X29654037Y-22843003D01*
X29654037Y-22843003D01*
G37*
X29654037Y-22843003D02*
X29655669Y-22856584D01*
X29653000Y-22870000D01*
X29653000Y-22996484D01*
X29634037Y-23243003D01*
X29635669Y-23256584D01*
X29633000Y-23270000D01*
X29633000Y-23386484D01*
X29624124Y-23501872D01*
X29614216Y-23620768D01*
X29614345Y-23621903D01*
X29614037Y-23623003D01*
X29604124Y-23751872D01*
X29594216Y-23870768D01*
X29594345Y-23871903D01*
X29594037Y-23873003D01*
X29584124Y-24001872D01*
X29544216Y-24480768D01*
X29535630Y-24583794D01*
X29518678Y-24677032D01*
X29518962Y-24694232D01*
X29514216Y-24710768D01*
X29504323Y-24829484D01*
X29495868Y-24922487D01*
X29478678Y-25017032D01*
X29478914Y-25031312D01*
X29474747Y-25044974D01*
X29466152Y-25130927D01*
X29448678Y-25227032D01*
X29448914Y-25241312D01*
X29444747Y-25254974D01*
X29436459Y-25337851D01*
X29419836Y-25420967D01*
X29419836Y-25420968D01*
X29399836Y-25520967D01*
X29399818Y-25538348D01*
X29394747Y-25554974D01*
X29386834Y-25634108D01*
X29371382Y-25703640D01*
X29371297Y-25707451D01*
X29369836Y-25710968D01*
X29351479Y-25802751D01*
X29333510Y-25874627D01*
X29333281Y-25879331D01*
X29331382Y-25883641D01*
X29311382Y-25973640D01*
X29310953Y-25992832D01*
X29305153Y-26011128D01*
X29297767Y-26077598D01*
X29283510Y-26134627D01*
X29283510Y-26134628D01*
X29280167Y-26148000D01*
X29159200Y-26148000D01*
X29159200Y-23490972D01*
X29344825Y-23366941D01*
X29441943Y-23269823D01*
X29572003Y-23075174D01*
X29572006Y-23075171D01*
X29607739Y-22988902D01*
X29624565Y-22948282D01*
X29624565Y-22948276D01*
X29659417Y-22773063D01*
X29654037Y-22843003D01*
G36*
X29283510Y-17465372D02*
X29283510Y-17465373D01*
X29297767Y-17522402D01*
X29305153Y-17588872D01*
X29310953Y-17607168D01*
X29311382Y-17626360D01*
X29331382Y-17716359D01*
X29333281Y-17720669D01*
X29333510Y-17725373D01*
X29351479Y-17797249D01*
X29369836Y-17889032D01*
X29371297Y-17892549D01*
X29371382Y-17896360D01*
X29386834Y-17965892D01*
X29394747Y-18045026D01*
X29399818Y-18061652D01*
X29399836Y-18079033D01*
X29419836Y-18179032D01*
X29419836Y-18179033D01*
X29436459Y-18262149D01*
X29444747Y-18345026D01*
X29448914Y-18358688D01*
X29448678Y-18372968D01*
X29466152Y-18469073D01*
X29474747Y-18555026D01*
X29478914Y-18568688D01*
X29478678Y-18582968D01*
X29495868Y-18677513D01*
X29504323Y-18770516D01*
X29514216Y-18889232D01*
X29518962Y-18905768D01*
X29518678Y-18922968D01*
X29535630Y-19016206D01*
X29544216Y-19119232D01*
X29584124Y-19598128D01*
X29594037Y-19726997D01*
X29594345Y-19728097D01*
X29594216Y-19729232D01*
X29604124Y-19848128D01*
X29614037Y-19976997D01*
X29614345Y-19978097D01*
X29614216Y-19979232D01*
X29624124Y-20098128D01*
X29633000Y-20213516D01*
X29633000Y-20330000D01*
X29635669Y-20343416D01*
X29634037Y-20356997D01*
X29653000Y-20603516D01*
X29653000Y-20730000D01*
X29655669Y-20743416D01*
X29654037Y-20756997D01*
X29659417Y-20826937D01*
X29624565Y-20651724D01*
X29624565Y-20651718D01*
X29593776Y-20577388D01*
X29572006Y-20524829D01*
X29572003Y-20524826D01*
X29441941Y-20330175D01*
X29344823Y-20233057D01*
X29159200Y-20109028D01*
X29159200Y-17452000D01*
X29280167Y-17452000D01*
X29283510Y-17465372D01*
X29283510Y-17465372D01*
G37*
X29283510Y-17465372D02*
X29283510Y-17465373D01*
X29297767Y-17522402D01*
X29305153Y-17588872D01*
X29310953Y-17607168D01*
X29311382Y-17626360D01*
X29331382Y-17716359D01*
X29333281Y-17720669D01*
X29333510Y-17725373D01*
X29351479Y-17797249D01*
X29369836Y-17889032D01*
X29371297Y-17892549D01*
X29371382Y-17896360D01*
X29386834Y-17965892D01*
X29394747Y-18045026D01*
X29399818Y-18061652D01*
X29399836Y-18079033D01*
X29419836Y-18179032D01*
X29419836Y-18179033D01*
X29436459Y-18262149D01*
X29444747Y-18345026D01*
X29448914Y-18358688D01*
X29448678Y-18372968D01*
X29466152Y-18469073D01*
X29474747Y-18555026D01*
X29478914Y-18568688D01*
X29478678Y-18582968D01*
X29495868Y-18677513D01*
X29504323Y-18770516D01*
X29514216Y-18889232D01*
X29518962Y-18905768D01*
X29518678Y-18922968D01*
X29535630Y-19016206D01*
X29544216Y-19119232D01*
X29584124Y-19598128D01*
X29594037Y-19726997D01*
X29594345Y-19728097D01*
X29594216Y-19729232D01*
X29604124Y-19848128D01*
X29614037Y-19976997D01*
X29614345Y-19978097D01*
X29614216Y-19979232D01*
X29624124Y-20098128D01*
X29633000Y-20213516D01*
X29633000Y-20330000D01*
X29635669Y-20343416D01*
X29634037Y-20356997D01*
X29653000Y-20603516D01*
X29653000Y-20730000D01*
X29655669Y-20743416D01*
X29654037Y-20756997D01*
X29659417Y-20826937D01*
X29624565Y-20651724D01*
X29624565Y-20651718D01*
X29593776Y-20577388D01*
X29572006Y-20524829D01*
X29572003Y-20524826D01*
X29441941Y-20330175D01*
X29344823Y-20233057D01*
X29159200Y-20109028D01*
X29159200Y-17452000D01*
X29280167Y-17452000D01*
X29283510Y-17465372D01*
M02*
