G04 #@! TF.FileFunction,Soldermask,Bot*
%FSLAX46Y46*%
G04 Gerber Fmt 4.6, Leading zero omitted, Abs format (unit mm)*
G04 Created by KiCad (PCBNEW 4.0.7) date 2018. July 19., Thursday 23:16:55*
%MOMM*%
%LPD*%
G01*
G04 APERTURE LIST*
%ADD10C,0.100000*%
%ADD11C,0.050000*%
G04 APERTURE END LIST*
D10*
D11*
X29325000Y-22650000D02*
G75*
G02X28125000Y-22650000I-600000J0D01*
G01*
X29325000Y-20950000D02*
G75*
G03X28125000Y-20950000I-600000J0D01*
G01*
X28125000Y-20950000D02*
G75*
G03X28125000Y-22650000I0J-850000D01*
G01*
X28500000Y-26500000D02*
G75*
G03X26900000Y-26500000I-800000J0D01*
G01*
X28500000Y-26500000D02*
X29525000Y-26500000D01*
X29325000Y-20950000D02*
X29325000Y-22650000D01*
X17525000Y-17100000D02*
G75*
G03X17025000Y-17600000I0J-500000D01*
G01*
X17025000Y-26000000D02*
G75*
G03X17525000Y-26500000I500000J0D01*
G01*
X17025000Y-17600000D02*
X17025000Y-26000000D01*
X29525000Y-17100000D02*
X17525000Y-17100000D01*
X17525000Y-26500000D02*
X26900000Y-26500000D01*
X30025000Y-21800000D02*
X30025000Y-21670000D01*
X30025000Y-21670000D02*
X30025000Y-21530000D01*
X30025000Y-21530000D02*
X30025000Y-21400000D01*
X30025000Y-21400000D02*
X30025000Y-21260000D01*
X30025000Y-21260000D02*
X30015000Y-21130000D01*
X30015000Y-21130000D02*
X30015000Y-20990000D01*
X30015000Y-20990000D02*
X30015000Y-20860000D01*
X30015000Y-20860000D02*
X30005000Y-20730000D01*
X30005000Y-20730000D02*
X30005000Y-20590000D01*
X30005000Y-20590000D02*
X29995000Y-20460000D01*
X29995000Y-20460000D02*
X29985000Y-20330000D01*
X29985000Y-20330000D02*
X29985000Y-20200000D01*
X29985000Y-20200000D02*
X29975000Y-20070000D01*
X29975000Y-20070000D02*
X29965000Y-19950000D01*
X29965000Y-19950000D02*
X29955000Y-19820000D01*
X29955000Y-19820000D02*
X29945000Y-19700000D01*
X29945000Y-19700000D02*
X29935000Y-19570000D01*
X29935000Y-19570000D02*
X29925000Y-19450000D01*
X29925000Y-19450000D02*
X29915000Y-19330000D01*
X29915000Y-19330000D02*
X29905000Y-19210000D01*
X29905000Y-19210000D02*
X29895000Y-19090000D01*
X29895000Y-19090000D02*
X29885000Y-18970000D01*
X29885000Y-18970000D02*
X29865000Y-18860000D01*
X29865000Y-18860000D02*
X29855000Y-18740000D01*
X29855000Y-18740000D02*
X29845000Y-18630000D01*
X29845000Y-18630000D02*
X29825000Y-18520000D01*
X29825000Y-18520000D02*
X29815000Y-18420000D01*
X29815000Y-18420000D02*
X29795000Y-18310000D01*
X29795000Y-18310000D02*
X29785000Y-18210000D01*
X29785000Y-18210000D02*
X29765000Y-18110000D01*
X29765000Y-18110000D02*
X29745000Y-18010000D01*
X29745000Y-18010000D02*
X29735000Y-17910000D01*
X29735000Y-17910000D02*
X29715000Y-17820000D01*
X29715000Y-17820000D02*
X29695000Y-17720000D01*
X29695000Y-17720000D02*
X29675000Y-17640000D01*
X29675000Y-17640000D02*
X29655000Y-17550000D01*
X29655000Y-17550000D02*
X29645000Y-17460000D01*
X29645000Y-17460000D02*
X29625000Y-17380000D01*
X29625000Y-17380000D02*
X29605000Y-17300000D01*
X29605000Y-17300000D02*
X29585000Y-17230000D01*
X29585000Y-17230000D02*
X29555000Y-17150000D01*
X29555000Y-17150000D02*
X29525000Y-17100000D01*
X29525000Y-26500000D02*
X29555000Y-26450000D01*
X29555000Y-26450000D02*
X29585000Y-26370000D01*
X29585000Y-26370000D02*
X29605000Y-26300000D01*
X29605000Y-26300000D02*
X29625000Y-26220000D01*
X29625000Y-26220000D02*
X29645000Y-26140000D01*
X29645000Y-26140000D02*
X29655000Y-26050000D01*
X29655000Y-26050000D02*
X29675000Y-25960000D01*
X29675000Y-25960000D02*
X29695000Y-25880000D01*
X29695000Y-25880000D02*
X29715000Y-25780000D01*
X29715000Y-25780000D02*
X29735000Y-25690000D01*
X29735000Y-25690000D02*
X29745000Y-25590000D01*
X29745000Y-25590000D02*
X29765000Y-25490000D01*
X29765000Y-25490000D02*
X29785000Y-25390000D01*
X29785000Y-25390000D02*
X29795000Y-25290000D01*
X29795000Y-25290000D02*
X29815000Y-25180000D01*
X29815000Y-25180000D02*
X29825000Y-25080000D01*
X29825000Y-25080000D02*
X29845000Y-24970000D01*
X29845000Y-24970000D02*
X29855000Y-24860000D01*
X29855000Y-24860000D02*
X29865000Y-24740000D01*
X29865000Y-24740000D02*
X29885000Y-24630000D01*
X29885000Y-24630000D02*
X29895000Y-24510000D01*
X29895000Y-24510000D02*
X29905000Y-24390000D01*
X29905000Y-24390000D02*
X29915000Y-24270000D01*
X29915000Y-24270000D02*
X29925000Y-24150000D01*
X29925000Y-24150000D02*
X29935000Y-24030000D01*
X29935000Y-24030000D02*
X29945000Y-23900000D01*
X29945000Y-23900000D02*
X29955000Y-23780000D01*
X29955000Y-23780000D02*
X29965000Y-23650000D01*
X29965000Y-23650000D02*
X29975000Y-23530000D01*
X29975000Y-23530000D02*
X29985000Y-23400000D01*
X29985000Y-23400000D02*
X29985000Y-23270000D01*
X29985000Y-23270000D02*
X29995000Y-23140000D01*
X29995000Y-23140000D02*
X30005000Y-23010000D01*
X30005000Y-23010000D02*
X30005000Y-22870000D01*
X30005000Y-22870000D02*
X30015000Y-22740000D01*
X30015000Y-22740000D02*
X30015000Y-22610000D01*
X30015000Y-22610000D02*
X30015000Y-22470000D01*
X30015000Y-22470000D02*
X30025000Y-22340000D01*
X30025000Y-22340000D02*
X30025000Y-22200000D01*
X30025000Y-22200000D02*
X30025000Y-22070000D01*
X30025000Y-22070000D02*
X30025000Y-21930000D01*
X30025000Y-21930000D02*
X30025000Y-21800000D01*
D10*
G36*
X19776380Y-24708378D02*
X19943512Y-24742685D01*
X20100796Y-24808801D01*
X20242243Y-24904208D01*
X20362465Y-25025273D01*
X20456883Y-25167383D01*
X20521900Y-25325126D01*
X20554991Y-25492245D01*
X20554991Y-25492254D01*
X20555038Y-25492492D01*
X20552317Y-25687368D01*
X20552262Y-25687610D01*
X20552262Y-25687611D01*
X20514519Y-25853743D01*
X20445121Y-26009610D01*
X20346774Y-26149026D01*
X20223216Y-26266689D01*
X20079163Y-26358109D01*
X19920093Y-26419808D01*
X19752068Y-26449435D01*
X19581494Y-26445862D01*
X19414852Y-26409224D01*
X19258506Y-26340917D01*
X19118407Y-26243546D01*
X18999888Y-26120815D01*
X18954380Y-26050200D01*
X18907463Y-25977400D01*
X18907461Y-25977397D01*
X18844655Y-25818767D01*
X18813855Y-25650954D01*
X18816237Y-25480349D01*
X18851709Y-25313467D01*
X18918923Y-25156645D01*
X19015315Y-25015868D01*
X19137216Y-24896494D01*
X19279985Y-24803069D01*
X19438172Y-24739157D01*
X19605768Y-24707187D01*
X19776380Y-24708378D01*
X19776380Y-24708378D01*
G37*
G36*
X25111975Y-23695163D02*
X25111986Y-23695167D01*
X25112010Y-23695169D01*
X25148366Y-23706423D01*
X25181843Y-23724524D01*
X25211166Y-23748782D01*
X25235220Y-23778275D01*
X25253086Y-23811877D01*
X25264086Y-23848310D01*
X25264145Y-23848910D01*
X25264294Y-23849404D01*
X25268439Y-23858338D01*
X25274908Y-23865764D01*
X25283191Y-23871093D01*
X25292630Y-23873904D01*
X25302478Y-23873974D01*
X25311956Y-23871297D01*
X25320313Y-23866086D01*
X25326888Y-23858753D01*
X25331159Y-23849879D01*
X25332800Y-23839288D01*
X25332800Y-23758000D01*
X25812800Y-23758000D01*
X25812800Y-24238000D01*
X25300556Y-24238000D01*
X25290805Y-24239386D01*
X25281827Y-24243433D01*
X25274331Y-24249821D01*
X25268912Y-24258045D01*
X25266021Y-24268229D01*
X25263539Y-24290357D01*
X25252031Y-24326633D01*
X25233697Y-24359983D01*
X25209234Y-24389136D01*
X25187389Y-24406700D01*
X25180824Y-24413713D01*
X25176363Y-24422493D01*
X25174524Y-24432169D01*
X25175454Y-24441974D01*
X25179078Y-24451131D01*
X25185110Y-24458916D01*
X25193073Y-24464713D01*
X25202335Y-24468062D01*
X25209486Y-24468800D01*
X25666600Y-24468800D01*
X25666600Y-25908800D01*
X25043000Y-25908800D01*
X25033249Y-25910186D01*
X25024271Y-25914233D01*
X25016775Y-25920621D01*
X25011356Y-25928845D01*
X25008442Y-25938253D01*
X25008000Y-25943800D01*
X25008000Y-26050200D01*
X24268000Y-26050200D01*
X24268000Y-25410200D01*
X25041600Y-25410200D01*
X25051351Y-25408814D01*
X25060329Y-25404767D01*
X25067825Y-25398379D01*
X25073244Y-25390155D01*
X25076158Y-25380747D01*
X25076600Y-25375200D01*
X25076600Y-24476868D01*
X25075214Y-24467117D01*
X25071167Y-24458139D01*
X25064779Y-24450643D01*
X25056555Y-24445224D01*
X25045259Y-24442060D01*
X25033625Y-24440837D01*
X25033614Y-24440833D01*
X25033590Y-24440831D01*
X24997234Y-24429577D01*
X24963757Y-24411476D01*
X24934434Y-24387218D01*
X24910380Y-24357725D01*
X24892514Y-24324123D01*
X24881514Y-24287690D01*
X24877800Y-24249814D01*
X24877800Y-23886110D01*
X24877808Y-23884885D01*
X24877809Y-23884875D01*
X24877819Y-23883463D01*
X24882061Y-23845643D01*
X24893569Y-23809367D01*
X24911903Y-23776017D01*
X24936366Y-23746864D01*
X24966025Y-23723017D01*
X24999752Y-23705385D01*
X25036261Y-23694640D01*
X25036281Y-23694638D01*
X25036292Y-23694635D01*
X25074162Y-23691189D01*
X25111975Y-23695163D01*
X25111975Y-23695163D01*
G37*
G36*
X23908000Y-26050200D02*
X23168000Y-26050200D01*
X23168000Y-25410200D01*
X23908000Y-25410200D01*
X23908000Y-26050200D01*
X23908000Y-26050200D01*
G37*
G36*
X21934600Y-26050200D02*
X21194600Y-26050200D01*
X21194600Y-25410200D01*
X21934600Y-25410200D01*
X21934600Y-26050200D01*
X21934600Y-26050200D01*
G37*
G36*
X23034600Y-26050200D02*
X22294600Y-26050200D01*
X22294600Y-25410200D01*
X23034600Y-25410200D01*
X23034600Y-26050200D01*
X23034600Y-26050200D01*
G37*
G36*
X27066600Y-25908800D02*
X26476600Y-25908800D01*
X26476600Y-25468800D01*
X27066600Y-25468800D01*
X27066600Y-25908800D01*
X27066600Y-25908800D01*
G37*
G36*
X24704800Y-25312800D02*
X24164800Y-25312800D01*
X24164800Y-24572800D01*
X24704800Y-24572800D01*
X24704800Y-25312800D01*
X24704800Y-25312800D01*
G37*
G36*
X23804800Y-25312800D02*
X23264800Y-25312800D01*
X23264800Y-24572800D01*
X23804800Y-24572800D01*
X23804800Y-25312800D01*
X23804800Y-25312800D01*
G37*
G36*
X27066600Y-24908800D02*
X26476600Y-24908800D01*
X26476600Y-24468800D01*
X27066600Y-24468800D01*
X27066600Y-24908800D01*
X27066600Y-24908800D01*
G37*
G36*
X23155915Y-23303008D02*
X23155925Y-23303009D01*
X23157337Y-23303019D01*
X23195157Y-23307261D01*
X23231433Y-23318769D01*
X23264783Y-23337103D01*
X23293936Y-23361566D01*
X23317783Y-23391225D01*
X23335415Y-23424952D01*
X23346160Y-23461461D01*
X23346162Y-23461481D01*
X23346165Y-23461492D01*
X23349611Y-23499362D01*
X23345637Y-23537175D01*
X23345633Y-23537186D01*
X23345631Y-23537210D01*
X23334377Y-23573566D01*
X23316276Y-23607043D01*
X23292018Y-23636366D01*
X23262525Y-23660420D01*
X23228923Y-23678286D01*
X23192490Y-23689286D01*
X23191890Y-23689345D01*
X23191396Y-23689494D01*
X23182462Y-23693639D01*
X23175036Y-23700108D01*
X23169707Y-23708391D01*
X23166896Y-23717830D01*
X23166826Y-23727678D01*
X23169503Y-23737156D01*
X23174714Y-23745513D01*
X23182047Y-23752088D01*
X23190921Y-23756359D01*
X23201512Y-23758000D01*
X23282800Y-23758000D01*
X23282800Y-23838428D01*
X23284186Y-23848179D01*
X23288233Y-23857157D01*
X23294621Y-23864653D01*
X23302845Y-23870072D01*
X23312253Y-23872986D01*
X23322100Y-23873163D01*
X23331607Y-23870590D01*
X23340020Y-23865470D01*
X23346674Y-23858209D01*
X23351042Y-23849381D01*
X23351174Y-23848775D01*
X23351188Y-23848779D01*
X23351994Y-23846237D01*
X23352061Y-23845643D01*
X23363569Y-23809367D01*
X23381903Y-23776017D01*
X23406366Y-23746864D01*
X23436025Y-23723017D01*
X23469752Y-23705385D01*
X23506261Y-23694640D01*
X23506281Y-23694638D01*
X23506292Y-23694635D01*
X23544162Y-23691189D01*
X23581975Y-23695163D01*
X23581986Y-23695167D01*
X23582010Y-23695169D01*
X23618366Y-23706423D01*
X23651843Y-23724524D01*
X23681166Y-23748782D01*
X23705220Y-23778275D01*
X23723086Y-23811877D01*
X23734086Y-23848310D01*
X23737800Y-23886186D01*
X23737800Y-24249821D01*
X23737792Y-24251115D01*
X23737791Y-24251125D01*
X23737781Y-24252537D01*
X23733539Y-24290357D01*
X23722031Y-24326633D01*
X23703697Y-24359983D01*
X23679234Y-24389136D01*
X23649575Y-24412983D01*
X23615848Y-24430615D01*
X23579339Y-24441360D01*
X23579319Y-24441362D01*
X23579308Y-24441365D01*
X23541438Y-24444811D01*
X23503625Y-24440837D01*
X23503614Y-24440833D01*
X23503590Y-24440831D01*
X23467234Y-24429577D01*
X23433757Y-24411476D01*
X23404434Y-24387218D01*
X23380380Y-24357725D01*
X23362514Y-24324123D01*
X23351514Y-24287690D01*
X23349637Y-24268546D01*
X23347560Y-24260016D01*
X23342656Y-24251475D01*
X23335567Y-24244639D01*
X23326853Y-24240048D01*
X23315057Y-24238000D01*
X22802800Y-24238000D01*
X22802800Y-23725756D01*
X22801414Y-23716005D01*
X22797367Y-23707027D01*
X22790979Y-23699531D01*
X22782755Y-23694112D01*
X22772571Y-23691221D01*
X22750443Y-23688739D01*
X22714167Y-23677231D01*
X22680817Y-23658897D01*
X22651664Y-23634434D01*
X22627817Y-23604775D01*
X22610185Y-23571048D01*
X22599440Y-23534539D01*
X22599438Y-23534519D01*
X22599435Y-23534508D01*
X22595989Y-23496638D01*
X22599963Y-23458825D01*
X22599967Y-23458814D01*
X22599969Y-23458790D01*
X22611223Y-23422434D01*
X22629324Y-23388957D01*
X22653582Y-23359634D01*
X22683075Y-23335580D01*
X22716677Y-23317714D01*
X22753110Y-23306714D01*
X22790986Y-23303000D01*
X23154690Y-23303000D01*
X23155915Y-23303008D01*
X23155915Y-23303008D01*
G37*
G36*
X24081975Y-23695163D02*
X24081986Y-23695167D01*
X24082010Y-23695169D01*
X24118366Y-23706423D01*
X24151843Y-23724524D01*
X24181166Y-23748782D01*
X24205220Y-23778275D01*
X24223086Y-23811877D01*
X24234086Y-23848310D01*
X24237800Y-23886186D01*
X24237800Y-24249821D01*
X24237792Y-24251115D01*
X24237791Y-24251125D01*
X24237781Y-24252537D01*
X24233539Y-24290357D01*
X24222031Y-24326633D01*
X24203697Y-24359983D01*
X24179234Y-24389136D01*
X24149575Y-24412983D01*
X24115848Y-24430615D01*
X24079339Y-24441360D01*
X24079319Y-24441362D01*
X24079308Y-24441365D01*
X24041438Y-24444811D01*
X24003625Y-24440837D01*
X24003614Y-24440833D01*
X24003590Y-24440831D01*
X23967234Y-24429577D01*
X23933757Y-24411476D01*
X23904434Y-24387218D01*
X23880380Y-24357725D01*
X23862514Y-24324123D01*
X23851514Y-24287690D01*
X23847800Y-24249814D01*
X23847800Y-23886110D01*
X23847808Y-23884885D01*
X23847809Y-23884875D01*
X23847819Y-23883463D01*
X23852061Y-23845643D01*
X23863569Y-23809367D01*
X23881903Y-23776017D01*
X23906366Y-23746864D01*
X23936025Y-23723017D01*
X23969752Y-23705385D01*
X24006261Y-23694640D01*
X24006281Y-23694638D01*
X24006292Y-23694635D01*
X24044162Y-23691189D01*
X24081975Y-23695163D01*
X24081975Y-23695163D01*
G37*
G36*
X24611975Y-23695163D02*
X24611986Y-23695167D01*
X24612010Y-23695169D01*
X24648366Y-23706423D01*
X24681843Y-23724524D01*
X24711166Y-23748782D01*
X24735220Y-23778275D01*
X24753086Y-23811877D01*
X24764086Y-23848310D01*
X24767800Y-23886186D01*
X24767800Y-24249821D01*
X24767792Y-24251115D01*
X24767791Y-24251125D01*
X24767781Y-24252537D01*
X24763539Y-24290357D01*
X24752031Y-24326633D01*
X24733697Y-24359983D01*
X24709234Y-24389136D01*
X24679575Y-24412983D01*
X24645848Y-24430615D01*
X24609339Y-24441360D01*
X24609319Y-24441362D01*
X24609308Y-24441365D01*
X24571438Y-24444811D01*
X24533625Y-24440837D01*
X24533614Y-24440833D01*
X24533590Y-24440831D01*
X24497234Y-24429577D01*
X24463757Y-24411476D01*
X24434434Y-24387218D01*
X24410380Y-24357725D01*
X24392514Y-24324123D01*
X24381514Y-24287690D01*
X24377800Y-24249814D01*
X24377800Y-23886110D01*
X24377808Y-23884885D01*
X24377809Y-23884875D01*
X24377819Y-23883463D01*
X24382061Y-23845643D01*
X24393569Y-23809367D01*
X24411903Y-23776017D01*
X24436366Y-23746864D01*
X24466025Y-23723017D01*
X24499752Y-23705385D01*
X24536261Y-23694640D01*
X24536281Y-23694638D01*
X24536292Y-23694635D01*
X24574162Y-23691189D01*
X24611975Y-23695163D01*
X24611975Y-23695163D01*
G37*
G36*
X21056883Y-22068444D02*
X21243226Y-22106695D01*
X21418588Y-22180410D01*
X21576294Y-22286784D01*
X21710335Y-22421764D01*
X21815604Y-22580208D01*
X21888096Y-22756084D01*
X21924995Y-22942440D01*
X21924995Y-22942454D01*
X21925041Y-22942687D01*
X21922007Y-23159961D01*
X21921954Y-23160194D01*
X21921954Y-23160205D01*
X21879866Y-23345460D01*
X21802492Y-23519244D01*
X21692840Y-23674684D01*
X21555083Y-23805869D01*
X21394465Y-23907800D01*
X21217115Y-23976590D01*
X21029777Y-24009623D01*
X20839596Y-24005639D01*
X20653801Y-23964790D01*
X20479484Y-23888632D01*
X20323282Y-23780068D01*
X20191139Y-23643230D01*
X20088089Y-23483328D01*
X20018063Y-23306464D01*
X19983724Y-23119363D01*
X19986380Y-22929149D01*
X20025929Y-22743084D01*
X20100868Y-22568237D01*
X20208342Y-22411276D01*
X20344249Y-22278185D01*
X20503431Y-22174020D01*
X20679801Y-22102761D01*
X20866661Y-22067116D01*
X21056883Y-22068444D01*
X21056883Y-22068444D01*
G37*
G36*
X18516883Y-22068444D02*
X18703226Y-22106695D01*
X18878588Y-22180410D01*
X19036294Y-22286784D01*
X19170335Y-22421764D01*
X19275604Y-22580208D01*
X19348096Y-22756084D01*
X19384995Y-22942440D01*
X19384995Y-22942454D01*
X19385041Y-22942687D01*
X19382007Y-23159961D01*
X19381954Y-23160194D01*
X19381954Y-23160205D01*
X19339866Y-23345460D01*
X19262492Y-23519244D01*
X19152840Y-23674684D01*
X19015083Y-23805869D01*
X18854465Y-23907800D01*
X18677115Y-23976590D01*
X18489777Y-24009623D01*
X18299596Y-24005639D01*
X18113801Y-23964790D01*
X17939484Y-23888632D01*
X17783282Y-23780068D01*
X17651139Y-23643230D01*
X17548089Y-23483328D01*
X17478063Y-23306464D01*
X17443724Y-23119363D01*
X17446380Y-22929149D01*
X17485929Y-22743084D01*
X17560868Y-22568237D01*
X17668342Y-22411276D01*
X17804249Y-22278185D01*
X17963431Y-22174020D01*
X18139801Y-22102761D01*
X18326661Y-22067116D01*
X18516883Y-22068444D01*
X18516883Y-22068444D01*
G37*
G36*
X25845915Y-23273008D02*
X25845925Y-23273009D01*
X25847337Y-23273019D01*
X25885157Y-23277261D01*
X25921433Y-23288769D01*
X25954783Y-23307103D01*
X25983936Y-23331566D01*
X26007783Y-23361225D01*
X26025415Y-23394952D01*
X26036160Y-23431461D01*
X26036162Y-23431481D01*
X26036165Y-23431492D01*
X26039611Y-23469362D01*
X26035637Y-23507175D01*
X26035633Y-23507186D01*
X26035631Y-23507210D01*
X26024377Y-23543566D01*
X26006276Y-23577043D01*
X25982018Y-23606366D01*
X25952525Y-23630420D01*
X25918923Y-23648286D01*
X25882490Y-23659286D01*
X25844614Y-23663000D01*
X25480910Y-23663000D01*
X25479685Y-23662992D01*
X25479675Y-23662991D01*
X25478263Y-23662981D01*
X25440443Y-23658739D01*
X25404167Y-23647231D01*
X25370817Y-23628897D01*
X25341664Y-23604434D01*
X25317817Y-23574775D01*
X25300185Y-23541048D01*
X25289440Y-23504539D01*
X25289438Y-23504519D01*
X25289435Y-23504508D01*
X25285989Y-23466638D01*
X25289963Y-23428825D01*
X25289967Y-23428814D01*
X25289969Y-23428790D01*
X25301223Y-23392434D01*
X25319324Y-23358957D01*
X25343582Y-23329634D01*
X25373075Y-23305580D01*
X25406677Y-23287714D01*
X25443110Y-23276714D01*
X25480986Y-23273000D01*
X25844690Y-23273000D01*
X25845915Y-23273008D01*
X25845915Y-23273008D01*
G37*
G36*
X25127800Y-23553000D02*
X23487800Y-23553000D01*
X23487800Y-21913000D01*
X25127800Y-21913000D01*
X25127800Y-23553000D01*
X25127800Y-23553000D01*
G37*
G36*
X25845915Y-22803008D02*
X25845925Y-22803009D01*
X25847337Y-22803019D01*
X25885157Y-22807261D01*
X25921433Y-22818769D01*
X25954783Y-22837103D01*
X25983936Y-22861566D01*
X26007783Y-22891225D01*
X26025415Y-22924952D01*
X26036160Y-22961461D01*
X26036162Y-22961481D01*
X26036165Y-22961492D01*
X26039611Y-22999362D01*
X26035637Y-23037175D01*
X26035633Y-23037186D01*
X26035631Y-23037210D01*
X26024377Y-23073566D01*
X26006276Y-23107043D01*
X25982018Y-23136366D01*
X25952525Y-23160420D01*
X25918923Y-23178286D01*
X25882490Y-23189286D01*
X25844614Y-23193000D01*
X25480910Y-23193000D01*
X25479685Y-23192992D01*
X25479675Y-23192991D01*
X25478263Y-23192981D01*
X25440443Y-23188739D01*
X25404167Y-23177231D01*
X25370817Y-23158897D01*
X25341664Y-23134434D01*
X25317817Y-23104775D01*
X25300185Y-23071048D01*
X25289440Y-23034539D01*
X25289438Y-23034519D01*
X25289435Y-23034508D01*
X25285989Y-22996638D01*
X25289963Y-22958825D01*
X25289967Y-22958814D01*
X25289969Y-22958790D01*
X25301223Y-22922434D01*
X25319324Y-22888957D01*
X25343582Y-22859634D01*
X25373075Y-22835580D01*
X25406677Y-22817714D01*
X25443110Y-22806714D01*
X25480986Y-22803000D01*
X25844690Y-22803000D01*
X25845915Y-22803008D01*
X25845915Y-22803008D01*
G37*
G36*
X23155915Y-22803008D02*
X23155925Y-22803009D01*
X23157337Y-22803019D01*
X23195157Y-22807261D01*
X23231433Y-22818769D01*
X23264783Y-22837103D01*
X23293936Y-22861566D01*
X23317783Y-22891225D01*
X23335415Y-22924952D01*
X23346160Y-22961461D01*
X23346162Y-22961481D01*
X23346165Y-22961492D01*
X23349611Y-22999362D01*
X23345637Y-23037175D01*
X23345633Y-23037186D01*
X23345631Y-23037210D01*
X23334377Y-23073566D01*
X23316276Y-23107043D01*
X23292018Y-23136366D01*
X23262525Y-23160420D01*
X23228923Y-23178286D01*
X23192490Y-23189286D01*
X23154614Y-23193000D01*
X22790910Y-23193000D01*
X22789685Y-23192992D01*
X22789675Y-23192991D01*
X22788263Y-23192981D01*
X22750443Y-23188739D01*
X22714167Y-23177231D01*
X22680817Y-23158897D01*
X22651664Y-23134434D01*
X22627817Y-23104775D01*
X22610185Y-23071048D01*
X22599440Y-23034539D01*
X22599438Y-23034519D01*
X22599435Y-23034508D01*
X22595989Y-22996638D01*
X22599963Y-22958825D01*
X22599967Y-22958814D01*
X22599969Y-22958790D01*
X22611223Y-22922434D01*
X22629324Y-22888957D01*
X22653582Y-22859634D01*
X22683075Y-22835580D01*
X22716677Y-22817714D01*
X22753110Y-22806714D01*
X22790986Y-22803000D01*
X23154690Y-22803000D01*
X23155915Y-22803008D01*
X23155915Y-22803008D01*
G37*
G36*
X23155915Y-22273008D02*
X23155925Y-22273009D01*
X23157337Y-22273019D01*
X23195157Y-22277261D01*
X23231433Y-22288769D01*
X23264783Y-22307103D01*
X23293936Y-22331566D01*
X23317783Y-22361225D01*
X23335415Y-22394952D01*
X23346160Y-22431461D01*
X23346162Y-22431481D01*
X23346165Y-22431492D01*
X23349611Y-22469362D01*
X23345637Y-22507175D01*
X23345633Y-22507186D01*
X23345631Y-22507210D01*
X23334377Y-22543566D01*
X23316276Y-22577043D01*
X23292018Y-22606366D01*
X23262525Y-22630420D01*
X23228923Y-22648286D01*
X23192490Y-22659286D01*
X23154614Y-22663000D01*
X22790910Y-22663000D01*
X22789685Y-22662992D01*
X22789675Y-22662991D01*
X22788263Y-22662981D01*
X22750443Y-22658739D01*
X22714167Y-22647231D01*
X22680817Y-22628897D01*
X22651664Y-22604434D01*
X22627817Y-22574775D01*
X22610185Y-22541048D01*
X22599440Y-22504539D01*
X22599438Y-22504519D01*
X22599435Y-22504508D01*
X22595989Y-22466638D01*
X22599963Y-22428825D01*
X22599967Y-22428814D01*
X22599969Y-22428790D01*
X22611223Y-22392434D01*
X22629324Y-22358957D01*
X22653582Y-22329634D01*
X22683075Y-22305580D01*
X22716677Y-22287714D01*
X22753110Y-22276714D01*
X22790986Y-22273000D01*
X23154690Y-22273000D01*
X23155915Y-22273008D01*
X23155915Y-22273008D01*
G37*
G36*
X25845915Y-22273008D02*
X25845925Y-22273009D01*
X25847337Y-22273019D01*
X25885157Y-22277261D01*
X25921433Y-22288769D01*
X25954783Y-22307103D01*
X25983936Y-22331566D01*
X26007783Y-22361225D01*
X26025415Y-22394952D01*
X26036160Y-22431461D01*
X26036162Y-22431481D01*
X26036165Y-22431492D01*
X26039611Y-22469362D01*
X26035637Y-22507175D01*
X26035633Y-22507186D01*
X26035631Y-22507210D01*
X26024377Y-22543566D01*
X26006276Y-22577043D01*
X25982018Y-22606366D01*
X25952525Y-22630420D01*
X25918923Y-22648286D01*
X25882490Y-22659286D01*
X25844614Y-22663000D01*
X25480910Y-22663000D01*
X25479685Y-22662992D01*
X25479675Y-22662991D01*
X25478263Y-22662981D01*
X25440443Y-22658739D01*
X25404167Y-22647231D01*
X25370817Y-22628897D01*
X25341664Y-22604434D01*
X25317817Y-22574775D01*
X25300185Y-22541048D01*
X25289440Y-22504539D01*
X25289438Y-22504519D01*
X25289435Y-22504508D01*
X25285989Y-22466638D01*
X25289963Y-22428825D01*
X25289967Y-22428814D01*
X25289969Y-22428790D01*
X25301223Y-22392434D01*
X25319324Y-22358957D01*
X25343582Y-22329634D01*
X25373075Y-22305580D01*
X25406677Y-22287714D01*
X25443110Y-22276714D01*
X25480986Y-22273000D01*
X25844690Y-22273000D01*
X25845915Y-22273008D01*
X25845915Y-22273008D01*
G37*
G36*
X26887600Y-22368000D02*
X26147600Y-22368000D01*
X26147600Y-21828000D01*
X26887600Y-21828000D01*
X26887600Y-22368000D01*
X26887600Y-22368000D01*
G37*
G36*
X25441400Y-20994800D02*
X25206809Y-20994800D01*
X25197058Y-20996186D01*
X25188080Y-21000233D01*
X25180584Y-21006621D01*
X25175165Y-21014845D01*
X25172251Y-21024253D01*
X25172074Y-21034100D01*
X25174647Y-21043607D01*
X25179767Y-21052020D01*
X25184233Y-21056502D01*
X25211166Y-21078782D01*
X25235220Y-21108275D01*
X25253086Y-21141877D01*
X25264086Y-21178310D01*
X25265963Y-21197454D01*
X25268040Y-21205984D01*
X25272944Y-21214525D01*
X25280033Y-21221361D01*
X25288747Y-21225952D01*
X25300543Y-21228000D01*
X25812800Y-21228000D01*
X25812800Y-21738021D01*
X25814186Y-21747772D01*
X25818233Y-21756750D01*
X25824621Y-21764246D01*
X25832845Y-21769665D01*
X25842253Y-21772579D01*
X25844101Y-21772731D01*
X25844093Y-21772804D01*
X25845922Y-21773009D01*
X25847337Y-21773019D01*
X25885157Y-21777261D01*
X25921433Y-21788769D01*
X25954783Y-21807103D01*
X25983936Y-21831566D01*
X26007783Y-21861225D01*
X26025415Y-21894952D01*
X26036160Y-21931461D01*
X26036162Y-21931481D01*
X26036165Y-21931492D01*
X26039611Y-21969362D01*
X26035637Y-22007175D01*
X26035633Y-22007186D01*
X26035631Y-22007210D01*
X26024377Y-22043566D01*
X26006276Y-22077043D01*
X25982018Y-22106366D01*
X25952525Y-22130420D01*
X25918923Y-22148286D01*
X25882490Y-22159286D01*
X25844614Y-22163000D01*
X25480910Y-22163000D01*
X25479685Y-22162992D01*
X25479675Y-22162991D01*
X25478263Y-22162981D01*
X25440443Y-22158739D01*
X25404167Y-22147231D01*
X25370817Y-22128897D01*
X25341664Y-22104434D01*
X25317817Y-22074775D01*
X25300185Y-22041048D01*
X25289440Y-22004539D01*
X25289438Y-22004519D01*
X25289435Y-22004508D01*
X25285989Y-21966638D01*
X25289963Y-21928825D01*
X25289967Y-21928814D01*
X25289969Y-21928790D01*
X25301223Y-21892434D01*
X25319324Y-21858957D01*
X25343582Y-21829634D01*
X25373075Y-21805580D01*
X25406677Y-21787714D01*
X25443110Y-21776714D01*
X25443710Y-21776655D01*
X25444204Y-21776506D01*
X25453138Y-21772361D01*
X25460564Y-21765892D01*
X25465893Y-21757609D01*
X25468704Y-21748170D01*
X25468774Y-21738322D01*
X25466097Y-21728844D01*
X25460886Y-21720487D01*
X25453553Y-21713912D01*
X25444679Y-21709641D01*
X25434088Y-21708000D01*
X25332800Y-21708000D01*
X25332800Y-21627572D01*
X25331414Y-21617821D01*
X25327367Y-21608843D01*
X25320979Y-21601347D01*
X25312755Y-21595928D01*
X25303347Y-21593014D01*
X25293500Y-21592837D01*
X25283993Y-21595410D01*
X25275580Y-21600530D01*
X25268926Y-21607791D01*
X25264558Y-21616619D01*
X25264426Y-21617225D01*
X25264412Y-21617221D01*
X25263606Y-21619763D01*
X25263539Y-21620357D01*
X25252031Y-21656633D01*
X25233697Y-21689983D01*
X25209234Y-21719136D01*
X25179575Y-21742983D01*
X25145848Y-21760615D01*
X25109339Y-21771360D01*
X25109319Y-21771362D01*
X25109308Y-21771365D01*
X25071438Y-21774811D01*
X25033625Y-21770837D01*
X25033614Y-21770833D01*
X25033590Y-21770831D01*
X24997234Y-21759577D01*
X24963757Y-21741476D01*
X24934434Y-21717218D01*
X24910380Y-21687725D01*
X24892514Y-21654123D01*
X24881514Y-21617690D01*
X24877800Y-21579814D01*
X24877800Y-21216110D01*
X24877808Y-21214885D01*
X24877809Y-21214875D01*
X24877819Y-21213463D01*
X24882061Y-21175643D01*
X24893569Y-21139367D01*
X24911903Y-21106017D01*
X24936366Y-21076864D01*
X24961196Y-21056900D01*
X24967761Y-21049887D01*
X24972222Y-21041107D01*
X24974061Y-21031431D01*
X24973131Y-21021626D01*
X24969507Y-21012469D01*
X24963475Y-21004684D01*
X24955512Y-20998887D01*
X24946250Y-20995538D01*
X24939099Y-20994800D01*
X24901400Y-20994800D01*
X24901400Y-20254800D01*
X25441400Y-20254800D01*
X25441400Y-20994800D01*
X25441400Y-20994800D01*
G37*
G36*
X23581975Y-21025163D02*
X23581986Y-21025167D01*
X23582010Y-21025169D01*
X23618366Y-21036423D01*
X23651843Y-21054524D01*
X23681166Y-21078782D01*
X23705220Y-21108275D01*
X23723086Y-21141877D01*
X23734086Y-21178310D01*
X23737800Y-21216186D01*
X23737800Y-21579890D01*
X23737792Y-21581115D01*
X23737791Y-21581125D01*
X23737781Y-21582537D01*
X23733539Y-21620357D01*
X23722031Y-21656633D01*
X23703697Y-21689983D01*
X23679234Y-21719136D01*
X23649575Y-21742983D01*
X23615848Y-21760615D01*
X23579339Y-21771360D01*
X23579319Y-21771362D01*
X23579308Y-21771365D01*
X23541438Y-21774811D01*
X23503625Y-21770837D01*
X23503614Y-21770833D01*
X23503590Y-21770831D01*
X23467234Y-21759577D01*
X23433757Y-21741476D01*
X23404434Y-21717218D01*
X23380380Y-21687725D01*
X23362514Y-21654123D01*
X23351514Y-21617690D01*
X23351455Y-21617090D01*
X23351306Y-21616596D01*
X23347161Y-21607662D01*
X23340692Y-21600236D01*
X23332409Y-21594907D01*
X23322970Y-21592096D01*
X23313122Y-21592026D01*
X23303644Y-21594703D01*
X23295287Y-21599914D01*
X23288712Y-21607247D01*
X23284441Y-21616121D01*
X23282800Y-21626712D01*
X23282800Y-21708000D01*
X23202372Y-21708000D01*
X23192621Y-21709386D01*
X23183643Y-21713433D01*
X23176147Y-21719821D01*
X23170728Y-21728045D01*
X23167814Y-21737453D01*
X23167637Y-21747300D01*
X23170210Y-21756807D01*
X23175330Y-21765220D01*
X23182591Y-21771874D01*
X23191419Y-21776242D01*
X23192025Y-21776374D01*
X23192021Y-21776388D01*
X23194563Y-21777194D01*
X23195157Y-21777261D01*
X23231433Y-21788769D01*
X23264783Y-21807103D01*
X23293936Y-21831566D01*
X23317783Y-21861225D01*
X23335415Y-21894952D01*
X23346160Y-21931461D01*
X23346162Y-21931481D01*
X23346165Y-21931492D01*
X23349611Y-21969362D01*
X23345637Y-22007175D01*
X23345633Y-22007186D01*
X23345631Y-22007210D01*
X23334377Y-22043566D01*
X23316276Y-22077043D01*
X23292018Y-22106366D01*
X23262525Y-22130420D01*
X23228923Y-22148286D01*
X23192490Y-22159286D01*
X23154614Y-22163000D01*
X22790910Y-22163000D01*
X22789685Y-22162992D01*
X22789675Y-22162991D01*
X22788263Y-22162981D01*
X22750443Y-22158739D01*
X22714167Y-22147231D01*
X22680817Y-22128897D01*
X22651664Y-22104434D01*
X22627817Y-22074775D01*
X22610185Y-22041048D01*
X22599440Y-22004539D01*
X22599438Y-22004519D01*
X22599435Y-22004508D01*
X22595989Y-21966638D01*
X22599963Y-21928825D01*
X22599967Y-21928814D01*
X22599969Y-21928790D01*
X22611223Y-21892434D01*
X22629324Y-21858957D01*
X22653582Y-21829634D01*
X22683075Y-21805580D01*
X22716677Y-21787714D01*
X22753110Y-21776714D01*
X22772254Y-21774837D01*
X22780784Y-21772760D01*
X22789325Y-21767856D01*
X22796161Y-21760767D01*
X22800752Y-21752053D01*
X22802800Y-21740257D01*
X22802800Y-21228000D01*
X23315044Y-21228000D01*
X23324795Y-21226614D01*
X23333773Y-21222567D01*
X23341269Y-21216179D01*
X23346688Y-21207955D01*
X23349579Y-21197771D01*
X23352061Y-21175643D01*
X23363569Y-21139367D01*
X23381903Y-21106017D01*
X23406366Y-21076864D01*
X23436025Y-21053017D01*
X23469752Y-21035385D01*
X23506261Y-21024640D01*
X23506281Y-21024638D01*
X23506292Y-21024635D01*
X23544162Y-21021189D01*
X23581975Y-21025163D01*
X23581975Y-21025163D01*
G37*
G36*
X24541400Y-20987178D02*
X24542786Y-20996929D01*
X24546833Y-21005907D01*
X24553221Y-21013403D01*
X24561445Y-21018822D01*
X24572742Y-21021986D01*
X24602975Y-21025163D01*
X24602986Y-21025167D01*
X24603010Y-21025169D01*
X24639366Y-21036423D01*
X24672843Y-21054524D01*
X24702166Y-21078782D01*
X24726220Y-21108275D01*
X24744086Y-21141877D01*
X24755086Y-21178310D01*
X24758800Y-21216186D01*
X24758800Y-21579890D01*
X24758792Y-21581115D01*
X24758791Y-21581125D01*
X24758781Y-21582537D01*
X24754539Y-21620357D01*
X24743031Y-21656633D01*
X24724697Y-21689983D01*
X24700234Y-21719136D01*
X24670575Y-21742983D01*
X24636848Y-21760615D01*
X24600339Y-21771360D01*
X24600319Y-21771362D01*
X24600308Y-21771365D01*
X24562438Y-21774811D01*
X24524625Y-21770837D01*
X24524614Y-21770833D01*
X24524590Y-21770831D01*
X24488234Y-21759577D01*
X24454757Y-21741476D01*
X24425434Y-21717218D01*
X24401380Y-21687725D01*
X24383514Y-21654123D01*
X24372514Y-21617690D01*
X24368800Y-21579814D01*
X24368800Y-21216110D01*
X24368808Y-21214885D01*
X24368809Y-21214875D01*
X24368819Y-21213463D01*
X24373061Y-21175643D01*
X24384569Y-21139367D01*
X24402903Y-21106017D01*
X24427366Y-21076864D01*
X24452196Y-21056900D01*
X24458761Y-21049887D01*
X24463222Y-21041107D01*
X24465061Y-21031431D01*
X24464131Y-21021626D01*
X24460507Y-21012469D01*
X24454475Y-21004684D01*
X24446512Y-20998887D01*
X24437250Y-20995538D01*
X24430099Y-20994800D01*
X24176809Y-20994800D01*
X24167058Y-20996186D01*
X24158080Y-21000233D01*
X24150584Y-21006621D01*
X24145165Y-21014845D01*
X24142251Y-21024253D01*
X24142074Y-21034100D01*
X24144647Y-21043607D01*
X24149767Y-21052020D01*
X24154233Y-21056502D01*
X24181166Y-21078782D01*
X24205220Y-21108275D01*
X24223086Y-21141877D01*
X24234086Y-21178310D01*
X24237800Y-21216186D01*
X24237800Y-21579890D01*
X24237792Y-21581115D01*
X24237791Y-21581125D01*
X24237781Y-21582537D01*
X24233539Y-21620357D01*
X24222031Y-21656633D01*
X24203697Y-21689983D01*
X24179234Y-21719136D01*
X24149575Y-21742983D01*
X24115848Y-21760615D01*
X24079339Y-21771360D01*
X24079319Y-21771362D01*
X24079308Y-21771365D01*
X24041438Y-21774811D01*
X24003625Y-21770837D01*
X24003614Y-21770833D01*
X24003590Y-21770831D01*
X23967234Y-21759577D01*
X23933757Y-21741476D01*
X23904434Y-21717218D01*
X23880380Y-21687725D01*
X23862514Y-21654123D01*
X23851514Y-21617690D01*
X23847800Y-21579814D01*
X23847800Y-21216110D01*
X23847808Y-21214885D01*
X23847809Y-21214875D01*
X23847819Y-21213463D01*
X23852061Y-21175643D01*
X23863569Y-21139367D01*
X23881903Y-21106017D01*
X23906366Y-21076864D01*
X23936025Y-21053017D01*
X23969752Y-21035385D01*
X23976309Y-21033455D01*
X23985246Y-21029384D01*
X23992716Y-21022966D01*
X23998103Y-21014721D01*
X24000979Y-21005301D01*
X24001400Y-20999891D01*
X24001400Y-20254800D01*
X24541400Y-20254800D01*
X24541400Y-20987178D01*
X24541400Y-20987178D01*
G37*
G36*
X18516883Y-19528444D02*
X18703226Y-19566695D01*
X18878588Y-19640410D01*
X19036294Y-19746784D01*
X19170335Y-19881764D01*
X19275604Y-20040208D01*
X19348096Y-20216084D01*
X19384995Y-20402440D01*
X19384995Y-20402454D01*
X19385041Y-20402687D01*
X19382007Y-20619961D01*
X19381954Y-20620194D01*
X19381954Y-20620205D01*
X19339866Y-20805460D01*
X19262492Y-20979244D01*
X19152840Y-21134684D01*
X19015083Y-21265869D01*
X18854465Y-21367800D01*
X18677115Y-21436590D01*
X18489777Y-21469623D01*
X18299596Y-21465639D01*
X18113801Y-21424790D01*
X17939484Y-21348632D01*
X17783282Y-21240068D01*
X17651139Y-21103230D01*
X17548089Y-20943328D01*
X17478063Y-20766464D01*
X17443724Y-20579363D01*
X17446380Y-20389149D01*
X17485929Y-20203084D01*
X17560868Y-20028237D01*
X17668342Y-19871276D01*
X17804249Y-19738185D01*
X17963431Y-19634020D01*
X18139801Y-19562761D01*
X18326661Y-19527116D01*
X18516883Y-19528444D01*
X18516883Y-19528444D01*
G37*
G36*
X22484000Y-20232800D02*
X21934015Y-20232800D01*
X21924264Y-20234186D01*
X21915286Y-20238233D01*
X21907790Y-20244621D01*
X21902371Y-20252845D01*
X21899457Y-20262253D01*
X21899682Y-20274598D01*
X21924995Y-20402440D01*
X21924995Y-20402454D01*
X21925041Y-20402687D01*
X21922007Y-20619961D01*
X21921954Y-20620194D01*
X21921954Y-20620205D01*
X21879866Y-20805460D01*
X21802492Y-20979244D01*
X21692840Y-21134684D01*
X21555083Y-21265869D01*
X21394465Y-21367800D01*
X21217115Y-21436590D01*
X21029777Y-21469623D01*
X20839596Y-21465639D01*
X20653801Y-21424790D01*
X20479484Y-21348632D01*
X20323282Y-21240068D01*
X20191139Y-21103230D01*
X20088089Y-20943328D01*
X20018063Y-20766464D01*
X19983724Y-20579363D01*
X19986380Y-20389149D01*
X20025929Y-20203084D01*
X20100868Y-20028237D01*
X20208342Y-19871276D01*
X20344249Y-19738185D01*
X20503431Y-19634020D01*
X20679801Y-19562761D01*
X20866661Y-19527116D01*
X21056883Y-19528444D01*
X21243226Y-19566695D01*
X21418588Y-19640410D01*
X21576294Y-19746784D01*
X21710335Y-19881764D01*
X21815604Y-20040208D01*
X21876641Y-20188292D01*
X21881638Y-20196779D01*
X21888801Y-20203537D01*
X21897564Y-20208033D01*
X21907232Y-20209909D01*
X21917041Y-20209018D01*
X21926212Y-20205429D01*
X21934021Y-20199427D01*
X21939849Y-20191488D01*
X21943233Y-20182239D01*
X21944000Y-20174954D01*
X21944000Y-19492800D01*
X22484000Y-19492800D01*
X22484000Y-20232800D01*
X22484000Y-20232800D01*
G37*
G36*
X26887600Y-21468000D02*
X26147600Y-21468000D01*
X26147600Y-20928000D01*
X26887600Y-20928000D01*
X26887600Y-21468000D01*
X26887600Y-21468000D01*
G37*
G36*
X24284400Y-18725000D02*
X23419000Y-18725000D01*
X23409249Y-18726386D01*
X23400271Y-18730433D01*
X23392775Y-18736821D01*
X23387356Y-18745045D01*
X23384442Y-18754453D01*
X23384000Y-18760000D01*
X23384000Y-18800000D01*
X23385386Y-18809751D01*
X23389433Y-18818729D01*
X23395821Y-18826225D01*
X23404045Y-18831644D01*
X23413453Y-18834558D01*
X23419000Y-18835000D01*
X24284400Y-18835000D01*
X24284400Y-19225000D01*
X23419000Y-19225000D01*
X23409249Y-19226386D01*
X23400271Y-19230433D01*
X23392775Y-19236821D01*
X23387356Y-19245045D01*
X23384442Y-19254453D01*
X23384000Y-19260000D01*
X23384000Y-19300000D01*
X23385386Y-19309751D01*
X23389433Y-19318729D01*
X23395821Y-19326225D01*
X23404045Y-19331644D01*
X23413453Y-19334558D01*
X23419000Y-19335000D01*
X24284400Y-19335000D01*
X24284400Y-19725000D01*
X23419000Y-19725000D01*
X23409249Y-19726386D01*
X23400271Y-19730433D01*
X23392775Y-19736821D01*
X23387356Y-19745045D01*
X23384442Y-19754453D01*
X23384000Y-19760000D01*
X23384000Y-20232800D01*
X22844000Y-20232800D01*
X22844000Y-19492800D01*
X23409400Y-19492800D01*
X23419151Y-19491414D01*
X23428129Y-19487367D01*
X23435625Y-19480979D01*
X23441044Y-19472755D01*
X23443958Y-19463347D01*
X23444400Y-19457800D01*
X23444400Y-19404200D01*
X23443014Y-19394449D01*
X23438967Y-19385471D01*
X23432579Y-19377975D01*
X23424355Y-19372556D01*
X23414947Y-19369642D01*
X23409400Y-19369200D01*
X22844000Y-19369200D01*
X22844000Y-18629200D01*
X23409400Y-18629200D01*
X23419151Y-18627814D01*
X23428129Y-18623767D01*
X23435625Y-18617379D01*
X23441044Y-18609155D01*
X23443958Y-18599747D01*
X23444400Y-18594200D01*
X23444400Y-18335000D01*
X24284400Y-18335000D01*
X24284400Y-18725000D01*
X24284400Y-18725000D01*
G37*
G36*
X26164400Y-20040000D02*
X24364400Y-20040000D01*
X24364400Y-17520000D01*
X26164400Y-17520000D01*
X26164400Y-20040000D01*
X26164400Y-20040000D01*
G37*
G36*
X27084400Y-19725000D02*
X26244400Y-19725000D01*
X26244400Y-19335000D01*
X27084400Y-19335000D01*
X27084400Y-19725000D01*
X27084400Y-19725000D01*
G37*
G36*
X22484000Y-19369200D02*
X21944000Y-19369200D01*
X21944000Y-18629200D01*
X22484000Y-18629200D01*
X22484000Y-19369200D01*
X22484000Y-19369200D01*
G37*
G36*
X27084400Y-19225000D02*
X26244400Y-19225000D01*
X26244400Y-18835000D01*
X27084400Y-18835000D01*
X27084400Y-19225000D01*
X27084400Y-19225000D01*
G37*
G36*
X19776380Y-17088378D02*
X19943512Y-17122685D01*
X20100796Y-17188801D01*
X20242243Y-17284208D01*
X20362465Y-17405273D01*
X20456883Y-17547383D01*
X20521900Y-17705126D01*
X20554991Y-17872245D01*
X20554991Y-17872254D01*
X20555038Y-17872492D01*
X20552317Y-18067368D01*
X20552262Y-18067610D01*
X20552262Y-18067611D01*
X20514519Y-18233743D01*
X20445121Y-18389610D01*
X20346774Y-18529026D01*
X20223216Y-18646689D01*
X20079163Y-18738109D01*
X19920093Y-18799808D01*
X19752068Y-18829435D01*
X19581494Y-18825862D01*
X19414852Y-18789224D01*
X19258506Y-18720917D01*
X19118407Y-18623546D01*
X18999888Y-18500815D01*
X18907461Y-18357397D01*
X18844655Y-18198767D01*
X18813855Y-18030954D01*
X18816237Y-17860349D01*
X18851709Y-17693467D01*
X18918923Y-17536645D01*
X19015315Y-17395868D01*
X19137216Y-17276494D01*
X19279985Y-17183069D01*
X19438172Y-17119157D01*
X19605768Y-17087187D01*
X19776380Y-17088378D01*
X19776380Y-17088378D01*
G37*
G36*
X27084400Y-18725000D02*
X26244400Y-18725000D01*
X26244400Y-18335000D01*
X27084400Y-18335000D01*
X27084400Y-18725000D01*
X27084400Y-18725000D01*
G37*
G36*
X22257000Y-18404800D02*
X21517000Y-18404800D01*
X21517000Y-17764800D01*
X22257000Y-17764800D01*
X22257000Y-18404800D01*
X22257000Y-18404800D01*
G37*
G36*
X23357000Y-18404800D02*
X22617000Y-18404800D01*
X22617000Y-17764800D01*
X23357000Y-17764800D01*
X23357000Y-18404800D01*
X23357000Y-18404800D01*
G37*
G36*
X24284400Y-18225000D02*
X23444400Y-18225000D01*
X23444400Y-17835000D01*
X24284400Y-17835000D01*
X24284400Y-18225000D01*
X24284400Y-18225000D01*
G37*
G36*
X27084400Y-18225000D02*
X26244400Y-18225000D01*
X26244400Y-17835000D01*
X27084400Y-17835000D01*
X27084400Y-18225000D01*
X27084400Y-18225000D01*
G37*
M02*
