G04 #@! TF.FileFunction,Legend,Top*
%FSLAX46Y46*%
G04 Gerber Fmt 4.6, Leading zero omitted, Abs format (unit mm)*
G04 Created by KiCad (PCBNEW 4.0.7) date 2018. July 19., Thursday 23:16:55*
%MOMM*%
%LPD*%
G01*
G04 APERTURE LIST*
%ADD10C,0.100000*%
%ADD11C,0.125000*%
%ADD12C,0.050000*%
G04 APERTURE END LIST*
D10*
X28516229Y-17795866D02*
X28230514Y-17929200D01*
X28516229Y-18024438D02*
X27916229Y-18024438D01*
X27916229Y-17872057D01*
X27944800Y-17833962D01*
X27973371Y-17814914D01*
X28030514Y-17795866D01*
X28116229Y-17795866D01*
X28173371Y-17814914D01*
X28201943Y-17833962D01*
X28230514Y-17872057D01*
X28230514Y-18024438D01*
X27916229Y-17453009D02*
X27916229Y-17529200D01*
X27944800Y-17567295D01*
X27973371Y-17586343D01*
X28059086Y-17624438D01*
X28173371Y-17643486D01*
X28401943Y-17643486D01*
X28459086Y-17624438D01*
X28487657Y-17605390D01*
X28516229Y-17567295D01*
X28516229Y-17491105D01*
X28487657Y-17453009D01*
X28459086Y-17433962D01*
X28401943Y-17414914D01*
X28259086Y-17414914D01*
X28201943Y-17433962D01*
X28173371Y-17453009D01*
X28144800Y-17491105D01*
X28144800Y-17567295D01*
X28173371Y-17605390D01*
X28201943Y-17624438D01*
X28259086Y-17643486D01*
X29090943Y-19916629D02*
X29090943Y-20049962D01*
X29405229Y-20049962D02*
X28805229Y-20049962D01*
X28805229Y-19859486D01*
X29405229Y-19707105D02*
X28805229Y-19707105D01*
X29405229Y-19516629D02*
X28805229Y-19516629D01*
X28805229Y-19421391D01*
X28833800Y-19364248D01*
X28890943Y-19326153D01*
X28948086Y-19307105D01*
X29062371Y-19288057D01*
X29148086Y-19288057D01*
X29262371Y-19307105D01*
X29319514Y-19326153D01*
X29376657Y-19364248D01*
X29405229Y-19421391D01*
X29405229Y-19516629D01*
X28805229Y-19040438D02*
X28805229Y-18964248D01*
X28833800Y-18926153D01*
X28890943Y-18888057D01*
X29005229Y-18869010D01*
X29205229Y-18869010D01*
X29319514Y-18888057D01*
X29376657Y-18926153D01*
X29405229Y-18964248D01*
X29405229Y-19040438D01*
X29376657Y-19078534D01*
X29319514Y-19116629D01*
X29205229Y-19135677D01*
X29005229Y-19135677D01*
X28890943Y-19116629D01*
X28833800Y-19078534D01*
X28805229Y-19040438D01*
X28805229Y-18392819D02*
X29290943Y-18392819D01*
X29348086Y-18373771D01*
X29376657Y-18354724D01*
X29405229Y-18316628D01*
X29405229Y-18240438D01*
X29376657Y-18202343D01*
X29348086Y-18183295D01*
X29290943Y-18164247D01*
X28805229Y-18164247D01*
X28862371Y-17992819D02*
X28833800Y-17973771D01*
X28805229Y-17935676D01*
X28805229Y-17840438D01*
X28833800Y-17802342D01*
X28862371Y-17783295D01*
X28919514Y-17764247D01*
X28976657Y-17764247D01*
X29062371Y-17783295D01*
X29405229Y-18011866D01*
X29405229Y-17764247D01*
X29090943Y-17459486D02*
X29090943Y-17592819D01*
X29405229Y-17592819D02*
X28805229Y-17592819D01*
X28805229Y-17402343D01*
D11*
X29444905Y-26259456D02*
X28644905Y-26259456D01*
X29444905Y-25973742D01*
X28644905Y-25973742D01*
X29444905Y-25735646D02*
X28911571Y-25735646D01*
X28644905Y-25735646D02*
X28683000Y-25759456D01*
X28721095Y-25735646D01*
X28683000Y-25711837D01*
X28644905Y-25735646D01*
X28721095Y-25735646D01*
X28911571Y-25568980D02*
X28911571Y-25378504D01*
X28644905Y-25497551D02*
X29330619Y-25497551D01*
X29406810Y-25473742D01*
X29444905Y-25426123D01*
X29444905Y-25378504D01*
X29444905Y-25211837D02*
X28911571Y-25211837D01*
X29063952Y-25211837D02*
X28987762Y-25188028D01*
X28949667Y-25164218D01*
X28911571Y-25116599D01*
X28911571Y-25068980D01*
X29444905Y-24830885D02*
X29406810Y-24878504D01*
X29368714Y-24902313D01*
X29292524Y-24926123D01*
X29063952Y-24926123D01*
X28987762Y-24902313D01*
X28949667Y-24878504D01*
X28911571Y-24830885D01*
X28911571Y-24759456D01*
X28949667Y-24711837D01*
X28987762Y-24688028D01*
X29063952Y-24664218D01*
X29292524Y-24664218D01*
X29368714Y-24688028D01*
X29406810Y-24711837D01*
X29444905Y-24759456D01*
X29444905Y-24830885D01*
X29444905Y-24449932D02*
X28644905Y-24449932D01*
X29140143Y-24402313D02*
X29444905Y-24259456D01*
X28911571Y-24259456D02*
X29216333Y-24449932D01*
X29406810Y-23854694D02*
X29444905Y-23902313D01*
X29444905Y-23997551D01*
X29406810Y-24045170D01*
X29330619Y-24068980D01*
X29025857Y-24068980D01*
X28949667Y-24045170D01*
X28911571Y-23997551D01*
X28911571Y-23902313D01*
X28949667Y-23854694D01*
X29025857Y-23830885D01*
X29102048Y-23830885D01*
X29178238Y-24068980D01*
X28911571Y-23664218D02*
X29444905Y-23545171D01*
X28911571Y-23426123D02*
X29444905Y-23545171D01*
X29635381Y-23592790D01*
X29673476Y-23616599D01*
X29711571Y-23664218D01*
D12*
X29325000Y-22650000D02*
G75*
G02X28125000Y-22650000I-600000J0D01*
G01*
X29325000Y-20950000D02*
G75*
G03X28125000Y-20950000I-600000J0D01*
G01*
X28125000Y-20950000D02*
G75*
G03X28125000Y-22650000I0J-850000D01*
G01*
X28500000Y-26500000D02*
G75*
G03X26900000Y-26500000I-800000J0D01*
G01*
X28500000Y-26500000D02*
X29525000Y-26500000D01*
X29325000Y-20950000D02*
X29325000Y-22650000D01*
X17525000Y-17100000D02*
G75*
G03X17025000Y-17600000I0J-500000D01*
G01*
X17025000Y-26000000D02*
G75*
G03X17525000Y-26500000I500000J0D01*
G01*
X17025000Y-17600000D02*
X17025000Y-26000000D01*
X29525000Y-17100000D02*
X17525000Y-17100000D01*
X17525000Y-26500000D02*
X26900000Y-26500000D01*
X30025000Y-21800000D02*
X30025000Y-21670000D01*
X30025000Y-21670000D02*
X30025000Y-21530000D01*
X30025000Y-21530000D02*
X30025000Y-21400000D01*
X30025000Y-21400000D02*
X30025000Y-21260000D01*
X30025000Y-21260000D02*
X30015000Y-21130000D01*
X30015000Y-21130000D02*
X30015000Y-20990000D01*
X30015000Y-20990000D02*
X30015000Y-20860000D01*
X30015000Y-20860000D02*
X30005000Y-20730000D01*
X30005000Y-20730000D02*
X30005000Y-20590000D01*
X30005000Y-20590000D02*
X29995000Y-20460000D01*
X29995000Y-20460000D02*
X29985000Y-20330000D01*
X29985000Y-20330000D02*
X29985000Y-20200000D01*
X29985000Y-20200000D02*
X29975000Y-20070000D01*
X29975000Y-20070000D02*
X29965000Y-19950000D01*
X29965000Y-19950000D02*
X29955000Y-19820000D01*
X29955000Y-19820000D02*
X29945000Y-19700000D01*
X29945000Y-19700000D02*
X29935000Y-19570000D01*
X29935000Y-19570000D02*
X29925000Y-19450000D01*
X29925000Y-19450000D02*
X29915000Y-19330000D01*
X29915000Y-19330000D02*
X29905000Y-19210000D01*
X29905000Y-19210000D02*
X29895000Y-19090000D01*
X29895000Y-19090000D02*
X29885000Y-18970000D01*
X29885000Y-18970000D02*
X29865000Y-18860000D01*
X29865000Y-18860000D02*
X29855000Y-18740000D01*
X29855000Y-18740000D02*
X29845000Y-18630000D01*
X29845000Y-18630000D02*
X29825000Y-18520000D01*
X29825000Y-18520000D02*
X29815000Y-18420000D01*
X29815000Y-18420000D02*
X29795000Y-18310000D01*
X29795000Y-18310000D02*
X29785000Y-18210000D01*
X29785000Y-18210000D02*
X29765000Y-18110000D01*
X29765000Y-18110000D02*
X29745000Y-18010000D01*
X29745000Y-18010000D02*
X29735000Y-17910000D01*
X29735000Y-17910000D02*
X29715000Y-17820000D01*
X29715000Y-17820000D02*
X29695000Y-17720000D01*
X29695000Y-17720000D02*
X29675000Y-17640000D01*
X29675000Y-17640000D02*
X29655000Y-17550000D01*
X29655000Y-17550000D02*
X29645000Y-17460000D01*
X29645000Y-17460000D02*
X29625000Y-17380000D01*
X29625000Y-17380000D02*
X29605000Y-17300000D01*
X29605000Y-17300000D02*
X29585000Y-17230000D01*
X29585000Y-17230000D02*
X29555000Y-17150000D01*
X29555000Y-17150000D02*
X29525000Y-17100000D01*
X29525000Y-26500000D02*
X29555000Y-26450000D01*
X29555000Y-26450000D02*
X29585000Y-26370000D01*
X29585000Y-26370000D02*
X29605000Y-26300000D01*
X29605000Y-26300000D02*
X29625000Y-26220000D01*
X29625000Y-26220000D02*
X29645000Y-26140000D01*
X29645000Y-26140000D02*
X29655000Y-26050000D01*
X29655000Y-26050000D02*
X29675000Y-25960000D01*
X29675000Y-25960000D02*
X29695000Y-25880000D01*
X29695000Y-25880000D02*
X29715000Y-25780000D01*
X29715000Y-25780000D02*
X29735000Y-25690000D01*
X29735000Y-25690000D02*
X29745000Y-25590000D01*
X29745000Y-25590000D02*
X29765000Y-25490000D01*
X29765000Y-25490000D02*
X29785000Y-25390000D01*
X29785000Y-25390000D02*
X29795000Y-25290000D01*
X29795000Y-25290000D02*
X29815000Y-25180000D01*
X29815000Y-25180000D02*
X29825000Y-25080000D01*
X29825000Y-25080000D02*
X29845000Y-24970000D01*
X29845000Y-24970000D02*
X29855000Y-24860000D01*
X29855000Y-24860000D02*
X29865000Y-24740000D01*
X29865000Y-24740000D02*
X29885000Y-24630000D01*
X29885000Y-24630000D02*
X29895000Y-24510000D01*
X29895000Y-24510000D02*
X29905000Y-24390000D01*
X29905000Y-24390000D02*
X29915000Y-24270000D01*
X29915000Y-24270000D02*
X29925000Y-24150000D01*
X29925000Y-24150000D02*
X29935000Y-24030000D01*
X29935000Y-24030000D02*
X29945000Y-23900000D01*
X29945000Y-23900000D02*
X29955000Y-23780000D01*
X29955000Y-23780000D02*
X29965000Y-23650000D01*
X29965000Y-23650000D02*
X29975000Y-23530000D01*
X29975000Y-23530000D02*
X29985000Y-23400000D01*
X29985000Y-23400000D02*
X29985000Y-23270000D01*
X29985000Y-23270000D02*
X29995000Y-23140000D01*
X29995000Y-23140000D02*
X30005000Y-23010000D01*
X30005000Y-23010000D02*
X30005000Y-22870000D01*
X30005000Y-22870000D02*
X30015000Y-22740000D01*
X30015000Y-22740000D02*
X30015000Y-22610000D01*
X30015000Y-22610000D02*
X30015000Y-22470000D01*
X30015000Y-22470000D02*
X30025000Y-22340000D01*
X30025000Y-22340000D02*
X30025000Y-22200000D01*
X30025000Y-22200000D02*
X30025000Y-22070000D01*
X30025000Y-22070000D02*
X30025000Y-21930000D01*
X30025000Y-21930000D02*
X30025000Y-21800000D01*
M02*
